<svg width="768" height="145" viewBox="0 0 768 145" fill="none" xmlns="http://www.w3.org/2000/svg">
<mask id="path-1-outside-1_734_3" maskUnits="userSpaceOnUse" x="0.384766" y="0.26001" width="768" height="144" fill="black">
<rect fill="white" x="0.384766" y="0.26001" width="768" height="144"/>
<path d="M33.7648 44.58H19.6048L16.3648 51H2.38477L25.4248 8.52001H40.7848L48.7648 51H34.7248L33.7648 44.58ZM32.3248 34.56L30.5848 22.74L24.6448 34.56H32.3248Z"/>
<path d="M70.031 23.4C71.751 21.44 73.671 19.88 75.791 18.72C77.951 17.52 80.091 16.92 82.211 16.92L79.751 31.14H75.971C73.451 31.14 71.511 31.58 70.151 32.46C68.831 33.34 67.971 34.9 67.571 37.14L65.111 51H51.791L57.791 17.16H71.111L70.031 23.4Z"/>
<path d="M101.339 16.74C105.819 16.74 109.379 17.94 112.019 20.34C114.659 22.7 115.979 25.94 115.979 30.06C115.979 31.22 115.859 32.46 115.619 33.78C115.339 35.1 115.119 35.98 114.959 36.42H93.5988C93.5588 36.66 93.5388 37 93.5388 37.44C93.5388 39.68 94.4988 40.8 96.4188 40.8C97.8988 40.8 99.0588 40.14 99.8988 38.82H113.999C113.119 41.22 111.739 43.38 109.859 45.3C107.979 47.18 105.759 48.68 103.199 49.8C100.679 50.88 98.0188 51.42 95.2188 51.42C90.7388 51.42 87.1788 50.24 84.5388 47.88C81.9388 45.48 80.6388 42.16 80.6388 37.92C80.6388 36.68 80.7588 35.4 80.9988 34.08C81.6388 30.56 82.9188 27.5 84.8388 24.9C86.7588 22.26 89.1388 20.24 91.9788 18.84C94.8588 17.44 97.9788 16.74 101.339 16.74ZM102.599 30.96C102.639 30.76 102.659 30.46 102.659 30.06C102.659 29.1 102.359 28.38 101.759 27.9C101.159 27.42 100.399 27.18 99.4788 27.18C97.0788 27.18 95.4588 28.44 94.6188 30.96H102.599Z"/>
<path d="M175.267 8.52001L154.807 38.1L152.527 51H139.207L141.487 38.1L131.467 8.52001H146.707L150.847 23.58L160.267 8.52001H175.267Z"/>
<path d="M186.815 51.42C183.815 51.42 181.175 50.84 178.895 49.68C176.615 48.52 174.835 46.88 173.555 44.76C172.275 42.6 171.635 40.1 171.635 37.26C171.635 33.34 172.555 29.82 174.395 26.7C176.275 23.58 178.835 21.14 182.075 19.38C185.315 17.62 188.935 16.74 192.935 16.74C195.935 16.74 198.575 17.34 200.855 18.54C203.135 19.7 204.915 21.36 206.195 23.52C207.475 25.64 208.115 28.12 208.115 30.96C208.115 34.88 207.195 38.4 205.355 41.52C203.515 44.64 200.975 47.08 197.735 48.84C194.495 50.56 190.855 51.42 186.815 51.42ZM188.855 39.9C190.575 39.9 191.935 39.12 192.935 37.56C193.935 36 194.435 34.26 194.435 32.34C194.435 30.98 194.095 29.96 193.415 29.28C192.775 28.6 191.935 28.26 190.895 28.26C189.175 28.26 187.815 29.04 186.815 30.6C185.815 32.16 185.315 33.9 185.315 35.82C185.315 37.18 185.635 38.2 186.275 38.88C186.915 39.56 187.775 39.9 188.855 39.9Z"/>
<path d="M250.759 17.16L244.759 51H231.439L232.339 45.9C231.019 47.5 229.399 48.8 227.479 49.8C225.559 50.76 223.419 51.24 221.059 51.24C217.779 51.24 215.259 50.3 213.499 48.42C211.739 46.5 210.859 43.88 210.859 40.56C210.859 39.36 210.979 38.1 211.219 36.78L214.699 17.16H227.959L224.779 35.1C224.699 35.74 224.659 36.18 224.659 36.42C224.659 37.66 224.999 38.62 225.679 39.3C226.399 39.98 227.379 40.32 228.619 40.32C230.059 40.32 231.279 39.86 232.279 38.94C233.279 38.02 233.939 36.76 234.259 35.16L237.439 17.16H250.759Z"/>
<path d="M298.471 8.52001L296.611 19.08H279.931L278.911 24.96H290.911L289.111 34.98H277.111L274.291 51H260.971L268.471 8.52001H298.471Z"/>
<path d="M308.682 14.46C306.602 14.46 304.962 13.96 303.762 12.96C302.602 11.96 302.022 10.66 302.022 9.06001C302.022 7.66001 302.402 6.36001 303.162 5.16001C303.922 3.96001 304.982 3.02001 306.342 2.34001C307.742 1.62001 309.282 1.26001 310.962 1.26001C313.002 1.26001 314.602 1.78001 315.762 2.82001C316.962 3.82001 317.562 5.14001 317.562 6.78001C317.562 8.18001 317.182 9.46001 316.422 10.62C315.662 11.78 314.602 12.72 313.242 13.44C311.882 14.12 310.362 14.46 308.682 14.46ZM314.802 17.16L308.802 51H295.482L301.482 17.16H314.802Z"/>
<path d="M333.058 23.4C334.778 21.44 336.698 19.88 338.818 18.72C340.978 17.52 343.118 16.92 345.238 16.92L342.778 31.14H338.998C336.478 31.14 334.538 31.58 333.178 32.46C331.858 33.34 330.998 34.9 330.598 37.14L328.138 51H314.818L320.818 17.16H334.138L333.058 23.4Z"/>
<path d="M364.366 16.74C368.846 16.74 372.406 17.94 375.046 20.34C377.686 22.7 379.006 25.94 379.006 30.06C379.006 31.22 378.886 32.46 378.646 33.78C378.366 35.1 378.146 35.98 377.986 36.42H356.626C356.586 36.66 356.566 37 356.566 37.44C356.566 39.68 357.526 40.8 359.446 40.8C360.926 40.8 362.086 40.14 362.926 38.82H377.026C376.146 41.22 374.766 43.38 372.886 45.3C371.006 47.18 368.786 48.68 366.226 49.8C363.706 50.88 361.046 51.42 358.246 51.42C353.766 51.42 350.206 50.24 347.566 47.88C344.966 45.48 343.666 42.16 343.666 37.92C343.666 36.68 343.786 35.4 344.026 34.08C344.666 30.56 345.946 27.5 347.866 24.9C349.786 22.26 352.166 20.24 355.006 18.84C357.886 17.44 361.006 16.74 364.366 16.74ZM365.626 30.96C365.666 30.76 365.686 30.46 365.686 30.06C365.686 29.1 365.386 28.38 364.786 27.9C364.186 27.42 363.426 27.18 362.506 27.18C360.106 27.18 358.486 28.44 357.646 30.96H365.626Z"/>
<path d="M417.294 8.52001C421.854 8.52001 425.314 9.54001 427.674 11.58C430.034 13.62 431.214 16.34 431.214 19.74C431.214 20.74 431.134 21.64 430.974 22.44C430.454 25.32 429.214 27.86 427.254 30.06C425.294 32.22 422.754 33.78 419.634 34.74L425.994 51H411.354L406.014 35.76L403.314 51H389.994L397.494 8.52001H417.294ZM407.574 26.88H412.854C414.134 26.88 415.134 26.6 415.854 26.04C416.614 25.44 417.114 24.52 417.354 23.28C417.394 23.08 417.414 22.82 417.414 22.5C417.414 21.62 417.134 20.94 416.574 20.46C416.014 19.94 415.194 19.68 414.114 19.68H408.834L407.574 26.88Z"/>
<path d="M451.729 16.74C456.209 16.74 459.769 17.94 462.409 20.34C465.049 22.7 466.369 25.94 466.369 30.06C466.369 31.22 466.249 32.46 466.009 33.78C465.729 35.1 465.509 35.98 465.349 36.42H443.989C443.949 36.66 443.929 37 443.929 37.44C443.929 39.68 444.889 40.8 446.809 40.8C448.289 40.8 449.449 40.14 450.289 38.82H464.389C463.509 41.22 462.129 43.38 460.249 45.3C458.369 47.18 456.149 48.68 453.589 49.8C451.069 50.88 448.409 51.42 445.609 51.42C441.129 51.42 437.569 50.24 434.929 47.88C432.329 45.48 431.029 42.16 431.029 37.92C431.029 36.68 431.149 35.4 431.389 34.08C432.029 30.56 433.309 27.5 435.229 24.9C437.149 22.26 439.529 20.24 442.369 18.84C445.249 17.44 448.369 16.74 451.729 16.74ZM452.989 30.96C453.029 30.76 453.049 30.46 453.049 30.06C453.049 29.1 452.749 28.38 452.149 27.9C451.549 27.42 450.789 27.18 449.869 27.18C447.469 27.18 445.849 28.44 445.009 30.96H452.989Z"/>
<path d="M468.362 34.08C469.002 30.52 470.162 27.44 471.842 24.84C473.522 22.2 475.542 20.2 477.902 18.84C480.262 17.44 482.762 16.74 485.402 16.74C487.602 16.74 489.422 17.2 490.862 18.12C492.302 19 493.302 20.22 493.862 21.78L494.702 17.16H507.962L501.962 51H488.702L489.542 46.38C488.422 47.94 486.982 49.18 485.222 50.1C483.462 50.98 481.482 51.42 479.282 51.42C475.882 51.42 473.142 50.28 471.062 48C468.982 45.72 467.942 42.56 467.942 38.52C467.942 37 468.082 35.52 468.362 34.08ZM491.702 34.08C491.782 33.72 491.822 33.24 491.822 32.64C491.822 31.28 491.462 30.24 490.742 29.52C490.022 28.76 489.042 28.38 487.802 28.38C486.362 28.38 485.082 28.88 483.962 29.88C482.882 30.88 482.182 32.28 481.862 34.08C481.782 34.44 481.742 34.92 481.742 35.52C481.742 36.88 482.102 37.94 482.822 38.7C483.542 39.42 484.522 39.78 485.762 39.78C487.202 39.78 488.462 39.28 489.542 38.28C490.662 37.28 491.382 35.88 491.702 34.08Z"/>
<path d="M509.143 34.08C509.783 30.52 510.943 27.44 512.623 24.84C514.303 22.2 516.323 20.2 518.683 18.84C521.043 17.44 523.543 16.74 526.183 16.74C528.383 16.74 530.183 17.2 531.583 18.12C533.023 19 534.023 20.22 534.583 21.78L537.283 6.60001H550.603L542.743 51H529.423L530.263 46.38C529.143 47.94 527.703 49.18 525.943 50.1C524.223 50.98 522.263 51.42 520.063 51.42C516.663 51.42 513.923 50.28 511.843 48C509.763 45.72 508.723 42.56 508.723 38.52C508.723 37 508.863 35.52 509.143 34.08ZM532.483 34.08C532.563 33.72 532.603 33.24 532.603 32.64C532.603 31.28 532.243 30.24 531.523 29.52C530.803 28.76 529.823 28.38 528.583 28.38C527.143 28.38 525.863 28.88 524.743 29.88C523.663 30.88 522.963 32.28 522.643 34.08C522.563 34.44 522.523 34.92 522.523 35.52C522.523 36.88 522.883 37.94 523.603 38.7C524.323 39.42 525.303 39.78 526.543 39.78C527.983 39.78 529.243 39.28 530.323 38.28C531.443 37.28 532.163 35.88 532.483 34.08Z"/>
<path d="M565.945 17.16L569.245 34.32L578.245 17.16H592.945L562.465 67.2H547.885L559.525 49.32L551.125 17.16H565.945Z"/>
<path d="M610.87 4.62001C614.75 4.62001 617.83 5.50001 620.11 7.26001C622.39 8.98001 623.53 11.5 623.53 14.82C623.53 15.82 623.45 16.78 623.29 17.7C622.65 21.22 620.95 24.06 618.19 26.22C615.47 28.38 612.17 29.5 608.29 29.58L607.21 33.84H595.45L597.31 21.12H602.35C604.79 21.12 606.67 20.86 607.99 20.34C609.35 19.78 610.11 18.88 610.27 17.64L610.33 17.16C610.33 16.6 610.17 16.18 609.85 15.9C609.53 15.58 609.11 15.42 608.59 15.42C607.79 15.42 607.15 15.68 606.67 16.2C606.19 16.68 605.89 17.32 605.77 18.12H593.23C593.55 15.64 594.43 13.38 595.87 11.34C597.35 9.30001 599.35 7.68001 601.87 6.48001C604.43 5.24001 607.43 4.62001 610.87 4.62001ZM598.39 51.48C596.31 51.48 594.67 50.98 593.47 49.98C592.31 48.98 591.73 47.68 591.73 46.08C591.73 44.68 592.11 43.38 592.87 42.18C593.67 40.98 594.75 40.04 596.11 39.36C597.51 38.64 599.05 38.28 600.73 38.28C602.77 38.28 604.37 38.8 605.53 39.84C606.69 40.84 607.27 42.14 607.27 43.74C607.27 45.14 606.89 46.44 606.13 47.64C605.37 48.8 604.31 49.74 602.95 50.46C601.59 51.14 600.07 51.48 598.39 51.48Z"/>
<path d="M415.79 84.52L398.57 127H382.01L381.35 102.88L372.17 127H355.61L353.39 84.52H367.73L366.89 111.28L377.33 84.52H391.85L392.87 111.28L401.45 84.52H415.79Z"/>
<path d="M434.606 92.74C439.086 92.74 442.646 93.94 445.286 96.34C447.926 98.7 449.246 101.94 449.246 106.06C449.246 107.22 449.126 108.46 448.886 109.78C448.606 111.1 448.386 111.98 448.226 112.42H426.866C426.826 112.66 426.806 113 426.806 113.44C426.806 115.68 427.766 116.8 429.686 116.8C431.166 116.8 432.326 116.14 433.166 114.82H447.266C446.386 117.22 445.006 119.38 443.126 121.3C441.246 123.18 439.026 124.68 436.466 125.8C433.946 126.88 431.286 127.42 428.486 127.42C424.006 127.42 420.446 126.24 417.806 123.88C415.206 121.48 413.906 118.16 413.906 113.92C413.906 112.68 414.026 111.4 414.266 110.08C414.906 106.56 416.186 103.5 418.106 100.9C420.026 98.26 422.406 96.24 425.246 94.84C428.126 93.44 431.246 92.74 434.606 92.74ZM435.866 106.96C435.906 106.76 435.926 106.46 435.926 106.06C435.926 105.1 435.626 104.38 435.026 103.9C434.426 103.42 433.666 103.18 432.746 103.18C430.346 103.18 428.726 104.44 427.886 106.96H435.866Z"/>
<path d="M462.814 105.7C463.534 101.5 465.034 97.76 467.314 94.48C469.594 91.2 472.474 88.66 475.954 86.86C479.434 85.02 483.314 84.1 487.594 84.1C491.274 84.1 494.434 84.8 497.074 86.2C499.754 87.56 501.794 89.5 503.194 92.02C504.594 94.54 505.274 97.48 505.234 100.84H491.194C490.794 99.44 490.074 98.36 489.034 97.6C487.994 96.8 486.714 96.4 485.194 96.4C482.954 96.4 481.034 97.24 479.434 98.92C477.834 100.6 476.794 102.86 476.314 105.7C476.154 106.5 476.074 107.36 476.074 108.28C476.074 110.36 476.574 112 477.574 113.2C478.614 114.4 480.074 115 481.954 115C483.474 115 484.894 114.62 486.214 113.86C487.534 113.06 488.634 111.96 489.514 110.56H503.554C502.354 113.92 500.614 116.86 498.334 119.38C496.054 121.9 493.334 123.86 490.174 125.26C487.054 126.62 483.654 127.3 479.974 127.3C476.254 127.3 473.074 126.62 470.434 125.26C467.794 123.86 465.794 121.9 464.434 119.38C463.074 116.82 462.394 113.86 462.394 110.5C462.394 108.86 462.534 107.26 462.814 105.7Z"/>
<path d="M506.61 110.08C507.25 106.52 508.41 103.44 510.09 100.84C511.77 98.2 513.79 96.2 516.15 94.84C518.51 93.44 521.01 92.74 523.65 92.74C525.85 92.74 527.67 93.2 529.11 94.12C530.55 95 531.55 96.22 532.11 97.78L532.95 93.16H546.21L540.21 127H526.95L527.79 122.38C526.67 123.94 525.23 125.18 523.47 126.1C521.71 126.98 519.73 127.42 517.53 127.42C514.13 127.42 511.39 126.28 509.31 124C507.23 121.72 506.19 118.56 506.19 114.52C506.19 113 506.33 111.52 506.61 110.08ZM529.95 110.08C530.03 109.72 530.07 109.24 530.07 108.64C530.07 107.28 529.71 106.24 528.99 105.52C528.27 104.76 527.29 104.38 526.05 104.38C524.61 104.38 523.33 104.88 522.21 105.88C521.13 106.88 520.43 108.28 520.11 110.08C520.03 110.44 519.99 110.92 519.99 111.52C519.99 112.88 520.35 113.94 521.07 114.7C521.79 115.42 522.77 115.78 524.01 115.78C525.45 115.78 526.71 115.28 527.79 114.28C528.91 113.28 529.63 111.88 529.95 110.08Z"/>
<path d="M575.891 92.92C579.171 92.92 581.691 93.88 583.451 95.8C585.211 97.68 586.091 100.28 586.091 103.6C586.091 104.8 585.971 106.06 585.731 107.38L582.251 127H568.991L572.171 109.06C572.251 108.42 572.291 107.98 572.291 107.74C572.291 106.5 571.931 105.54 571.211 104.86C570.531 104.18 569.571 103.84 568.331 103.84C566.891 103.84 565.671 104.3 564.671 105.22C563.671 106.14 563.011 107.4 562.691 109L559.511 127H546.191L552.191 93.16H565.511L564.611 98.26C565.931 96.66 567.551 95.38 569.471 94.42C571.391 93.42 573.531 92.92 575.891 92.92Z"/>
<path d="M645.023 84.52L637.523 127H624.203L627.143 110.44H614.483L611.543 127H598.223L605.723 84.52H619.043L616.343 99.82H629.003L631.703 84.52H645.023Z"/>
<path d="M665.056 92.74C669.536 92.74 673.096 93.94 675.736 96.34C678.376 98.7 679.696 101.94 679.696 106.06C679.696 107.22 679.576 108.46 679.336 109.78C679.056 111.1 678.836 111.98 678.676 112.42H657.316C657.276 112.66 657.256 113 657.256 113.44C657.256 115.68 658.216 116.8 660.136 116.8C661.616 116.8 662.776 116.14 663.616 114.82H677.716C676.836 117.22 675.456 119.38 673.576 121.3C671.696 123.18 669.476 124.68 666.916 125.8C664.396 126.88 661.736 127.42 658.936 127.42C654.456 127.42 650.896 126.24 648.256 123.88C645.656 121.48 644.356 118.16 644.356 113.92C644.356 112.68 644.476 111.4 644.716 110.08C645.356 106.56 646.636 103.5 648.556 100.9C650.476 98.26 652.856 96.24 655.696 94.84C658.576 93.44 661.696 92.74 665.056 92.74ZM666.316 106.96C666.356 106.76 666.376 106.46 666.376 106.06C666.376 105.1 666.076 104.38 665.476 103.9C664.876 103.42 664.116 103.18 663.196 103.18C660.796 103.18 659.176 104.44 658.336 106.96H666.316Z"/>
<path d="M701.668 82.6L693.808 127H680.488L688.348 82.6H701.668Z"/>
<path d="M718.304 97.78C719.424 96.22 720.844 95 722.564 94.12C724.324 93.2 726.304 92.74 728.504 92.74C731.904 92.74 734.644 93.88 736.724 96.16C738.804 98.44 739.844 101.6 739.844 105.64C739.844 107.16 739.704 108.64 739.424 110.08C738.784 113.64 737.624 116.74 735.944 119.38C734.264 121.98 732.244 123.98 729.884 125.38C727.524 126.74 725.024 127.42 722.384 127.42C720.184 127.42 718.364 126.98 716.924 126.1C715.524 125.18 714.544 123.94 713.984 122.38L710.324 143.2H697.004L705.824 93.16H719.144L718.304 97.78ZM725.924 110.08C726.004 109.72 726.044 109.24 726.044 108.64C726.044 107.28 725.684 106.24 724.964 105.52C724.244 104.76 723.264 104.38 722.024 104.38C720.584 104.38 719.304 104.88 718.184 105.88C717.104 106.88 716.404 108.28 716.084 110.08C716.004 110.44 715.964 110.92 715.964 111.52C715.964 112.88 716.324 113.94 717.044 114.7C717.764 115.42 718.744 115.78 719.984 115.78C721.424 115.78 722.684 115.28 723.764 114.28C724.884 113.28 725.604 111.88 725.924 110.08Z"/>
<path d="M766.525 81.7L759.985 110.14H748.585L752.005 81.7H766.525ZM751.225 127.48C749.145 127.48 747.505 126.98 746.305 125.98C745.145 124.98 744.565 123.68 744.565 122.08C744.565 120.68 744.945 119.38 745.705 118.18C746.505 116.98 747.585 116.04 748.945 115.36C750.345 114.64 751.885 114.28 753.565 114.28C755.605 114.28 757.205 114.8 758.365 115.84C759.525 116.84 760.105 118.14 760.105 119.74C760.105 121.14 759.725 122.44 758.965 123.64C758.205 124.8 757.145 125.74 755.785 126.46C754.425 127.14 752.905 127.48 751.225 127.48Z"/>
</mask>
<path d="M33.7648 44.58H19.6048L16.3648 51H2.38477L25.4248 8.52001H40.7848L48.7648 51H34.7248L33.7648 44.58ZM32.3248 34.56L30.5848 22.74L24.6448 34.56H32.3248Z" fill="#F8FF24"/>
<path d="M70.031 23.4C71.751 21.44 73.671 19.88 75.791 18.72C77.951 17.52 80.091 16.92 82.211 16.92L79.751 31.14H75.971C73.451 31.14 71.511 31.58 70.151 32.46C68.831 33.34 67.971 34.9 67.571 37.14L65.111 51H51.791L57.791 17.16H71.111L70.031 23.4Z" fill="#F8FF24"/>
<path d="M101.339 16.74C105.819 16.74 109.379 17.94 112.019 20.34C114.659 22.7 115.979 25.94 115.979 30.06C115.979 31.22 115.859 32.46 115.619 33.78C115.339 35.1 115.119 35.98 114.959 36.42H93.5988C93.5588 36.66 93.5388 37 93.5388 37.44C93.5388 39.68 94.4988 40.8 96.4188 40.8C97.8988 40.8 99.0588 40.14 99.8988 38.82H113.999C113.119 41.22 111.739 43.38 109.859 45.3C107.979 47.18 105.759 48.68 103.199 49.8C100.679 50.88 98.0188 51.42 95.2188 51.42C90.7388 51.42 87.1788 50.24 84.5388 47.88C81.9388 45.48 80.6388 42.16 80.6388 37.92C80.6388 36.68 80.7588 35.4 80.9988 34.08C81.6388 30.56 82.9188 27.5 84.8388 24.9C86.7588 22.26 89.1388 20.24 91.9788 18.84C94.8588 17.44 97.9788 16.74 101.339 16.74ZM102.599 30.96C102.639 30.76 102.659 30.46 102.659 30.06C102.659 29.1 102.359 28.38 101.759 27.9C101.159 27.42 100.399 27.18 99.4788 27.18C97.0788 27.18 95.4588 28.44 94.6188 30.96H102.599Z" fill="#F8FF24"/>
<path d="M175.267 8.52001L154.807 38.1L152.527 51H139.207L141.487 38.1L131.467 8.52001H146.707L150.847 23.58L160.267 8.52001H175.267Z" fill="#F8FF24"/>
<path d="M186.815 51.42C183.815 51.42 181.175 50.84 178.895 49.68C176.615 48.52 174.835 46.88 173.555 44.76C172.275 42.6 171.635 40.1 171.635 37.26C171.635 33.34 172.555 29.82 174.395 26.7C176.275 23.58 178.835 21.14 182.075 19.38C185.315 17.62 188.935 16.74 192.935 16.74C195.935 16.74 198.575 17.34 200.855 18.54C203.135 19.7 204.915 21.36 206.195 23.52C207.475 25.64 208.115 28.12 208.115 30.96C208.115 34.88 207.195 38.4 205.355 41.52C203.515 44.64 200.975 47.08 197.735 48.84C194.495 50.56 190.855 51.42 186.815 51.42ZM188.855 39.9C190.575 39.9 191.935 39.12 192.935 37.56C193.935 36 194.435 34.26 194.435 32.34C194.435 30.98 194.095 29.96 193.415 29.28C192.775 28.6 191.935 28.26 190.895 28.26C189.175 28.26 187.815 29.04 186.815 30.6C185.815 32.16 185.315 33.9 185.315 35.82C185.315 37.18 185.635 38.2 186.275 38.88C186.915 39.56 187.775 39.9 188.855 39.9Z" fill="#F8FF24"/>
<path d="M250.759 17.16L244.759 51H231.439L232.339 45.9C231.019 47.5 229.399 48.8 227.479 49.8C225.559 50.76 223.419 51.24 221.059 51.24C217.779 51.24 215.259 50.3 213.499 48.42C211.739 46.5 210.859 43.88 210.859 40.56C210.859 39.36 210.979 38.1 211.219 36.78L214.699 17.16H227.959L224.779 35.1C224.699 35.74 224.659 36.18 224.659 36.42C224.659 37.66 224.999 38.62 225.679 39.3C226.399 39.98 227.379 40.32 228.619 40.32C230.059 40.32 231.279 39.86 232.279 38.94C233.279 38.02 233.939 36.76 234.259 35.16L237.439 17.16H250.759Z" fill="#F8FF24"/>
<path d="M298.471 8.52001L296.611 19.08H279.931L278.911 24.96H290.911L289.111 34.98H277.111L274.291 51H260.971L268.471 8.52001H298.471Z" fill="#F8FF24"/>
<path d="M308.682 14.46C306.602 14.46 304.962 13.96 303.762 12.96C302.602 11.96 302.022 10.66 302.022 9.06001C302.022 7.66001 302.402 6.36001 303.162 5.16001C303.922 3.96001 304.982 3.02001 306.342 2.34001C307.742 1.62001 309.282 1.26001 310.962 1.26001C313.002 1.26001 314.602 1.78001 315.762 2.82001C316.962 3.82001 317.562 5.14001 317.562 6.78001C317.562 8.18001 317.182 9.46001 316.422 10.62C315.662 11.78 314.602 12.72 313.242 13.44C311.882 14.12 310.362 14.46 308.682 14.46ZM314.802 17.16L308.802 51H295.482L301.482 17.16H314.802Z" fill="#F8FF24"/>
<path d="M333.058 23.4C334.778 21.44 336.698 19.88 338.818 18.72C340.978 17.52 343.118 16.92 345.238 16.92L342.778 31.14H338.998C336.478 31.14 334.538 31.58 333.178 32.46C331.858 33.34 330.998 34.9 330.598 37.14L328.138 51H314.818L320.818 17.16H334.138L333.058 23.4Z" fill="#F8FF24"/>
<path d="M364.366 16.74C368.846 16.74 372.406 17.94 375.046 20.34C377.686 22.7 379.006 25.94 379.006 30.06C379.006 31.22 378.886 32.46 378.646 33.78C378.366 35.1 378.146 35.98 377.986 36.42H356.626C356.586 36.66 356.566 37 356.566 37.44C356.566 39.68 357.526 40.8 359.446 40.8C360.926 40.8 362.086 40.14 362.926 38.82H377.026C376.146 41.22 374.766 43.38 372.886 45.3C371.006 47.18 368.786 48.68 366.226 49.8C363.706 50.88 361.046 51.42 358.246 51.42C353.766 51.42 350.206 50.24 347.566 47.88C344.966 45.48 343.666 42.16 343.666 37.92C343.666 36.68 343.786 35.4 344.026 34.08C344.666 30.56 345.946 27.5 347.866 24.9C349.786 22.26 352.166 20.24 355.006 18.84C357.886 17.44 361.006 16.74 364.366 16.74ZM365.626 30.96C365.666 30.76 365.686 30.46 365.686 30.06C365.686 29.1 365.386 28.38 364.786 27.9C364.186 27.42 363.426 27.18 362.506 27.18C360.106 27.18 358.486 28.44 357.646 30.96H365.626Z" fill="#F8FF24"/>
<path d="M417.294 8.52001C421.854 8.52001 425.314 9.54001 427.674 11.58C430.034 13.62 431.214 16.34 431.214 19.74C431.214 20.74 431.134 21.64 430.974 22.44C430.454 25.32 429.214 27.86 427.254 30.06C425.294 32.22 422.754 33.78 419.634 34.74L425.994 51H411.354L406.014 35.76L403.314 51H389.994L397.494 8.52001H417.294ZM407.574 26.88H412.854C414.134 26.88 415.134 26.6 415.854 26.04C416.614 25.44 417.114 24.52 417.354 23.28C417.394 23.08 417.414 22.82 417.414 22.5C417.414 21.62 417.134 20.94 416.574 20.46C416.014 19.94 415.194 19.68 414.114 19.68H408.834L407.574 26.88Z" fill="#F8FF24"/>
<path d="M451.729 16.74C456.209 16.74 459.769 17.94 462.409 20.34C465.049 22.7 466.369 25.94 466.369 30.06C466.369 31.22 466.249 32.46 466.009 33.78C465.729 35.1 465.509 35.98 465.349 36.42H443.989C443.949 36.66 443.929 37 443.929 37.44C443.929 39.68 444.889 40.8 446.809 40.8C448.289 40.8 449.449 40.14 450.289 38.82H464.389C463.509 41.22 462.129 43.38 460.249 45.3C458.369 47.18 456.149 48.68 453.589 49.8C451.069 50.88 448.409 51.42 445.609 51.42C441.129 51.42 437.569 50.24 434.929 47.88C432.329 45.48 431.029 42.16 431.029 37.92C431.029 36.68 431.149 35.4 431.389 34.08C432.029 30.56 433.309 27.5 435.229 24.9C437.149 22.26 439.529 20.24 442.369 18.84C445.249 17.44 448.369 16.74 451.729 16.74ZM452.989 30.96C453.029 30.76 453.049 30.46 453.049 30.06C453.049 29.1 452.749 28.38 452.149 27.9C451.549 27.42 450.789 27.18 449.869 27.18C447.469 27.18 445.849 28.44 445.009 30.96H452.989Z" fill="#F8FF24"/>
<path d="M468.362 34.08C469.002 30.52 470.162 27.44 471.842 24.84C473.522 22.2 475.542 20.2 477.902 18.84C480.262 17.44 482.762 16.74 485.402 16.74C487.602 16.74 489.422 17.2 490.862 18.12C492.302 19 493.302 20.22 493.862 21.78L494.702 17.16H507.962L501.962 51H488.702L489.542 46.38C488.422 47.94 486.982 49.18 485.222 50.1C483.462 50.98 481.482 51.42 479.282 51.42C475.882 51.42 473.142 50.28 471.062 48C468.982 45.72 467.942 42.56 467.942 38.52C467.942 37 468.082 35.52 468.362 34.08ZM491.702 34.08C491.782 33.72 491.822 33.24 491.822 32.64C491.822 31.28 491.462 30.24 490.742 29.52C490.022 28.76 489.042 28.38 487.802 28.38C486.362 28.38 485.082 28.88 483.962 29.88C482.882 30.88 482.182 32.28 481.862 34.08C481.782 34.44 481.742 34.92 481.742 35.52C481.742 36.88 482.102 37.94 482.822 38.7C483.542 39.42 484.522 39.78 485.762 39.78C487.202 39.78 488.462 39.28 489.542 38.28C490.662 37.28 491.382 35.88 491.702 34.08Z" fill="#F8FF24"/>
<path d="M509.143 34.08C509.783 30.52 510.943 27.44 512.623 24.84C514.303 22.2 516.323 20.2 518.683 18.84C521.043 17.44 523.543 16.74 526.183 16.74C528.383 16.74 530.183 17.2 531.583 18.12C533.023 19 534.023 20.22 534.583 21.78L537.283 6.60001H550.603L542.743 51H529.423L530.263 46.38C529.143 47.94 527.703 49.18 525.943 50.1C524.223 50.98 522.263 51.42 520.063 51.42C516.663 51.42 513.923 50.28 511.843 48C509.763 45.72 508.723 42.56 508.723 38.52C508.723 37 508.863 35.52 509.143 34.08ZM532.483 34.08C532.563 33.72 532.603 33.24 532.603 32.64C532.603 31.28 532.243 30.24 531.523 29.52C530.803 28.76 529.823 28.38 528.583 28.38C527.143 28.38 525.863 28.88 524.743 29.88C523.663 30.88 522.963 32.28 522.643 34.08C522.563 34.44 522.523 34.92 522.523 35.52C522.523 36.88 522.883 37.94 523.603 38.7C524.323 39.42 525.303 39.78 526.543 39.78C527.983 39.78 529.243 39.28 530.323 38.28C531.443 37.28 532.163 35.88 532.483 34.08Z" fill="#F8FF24"/>
<path d="M565.945 17.16L569.245 34.32L578.245 17.16H592.945L562.465 67.2H547.885L559.525 49.32L551.125 17.16H565.945Z" fill="#F8FF24"/>
<path d="M610.87 4.62001C614.75 4.62001 617.83 5.50001 620.11 7.26001C622.39 8.98001 623.53 11.5 623.53 14.82C623.53 15.82 623.45 16.78 623.29 17.7C622.65 21.22 620.95 24.06 618.19 26.22C615.47 28.38 612.17 29.5 608.29 29.58L607.21 33.84H595.45L597.31 21.12H602.35C604.79 21.12 606.67 20.86 607.99 20.34C609.35 19.78 610.11 18.88 610.27 17.64L610.33 17.16C610.33 16.6 610.17 16.18 609.85 15.9C609.53 15.58 609.11 15.42 608.59 15.42C607.79 15.42 607.15 15.68 606.67 16.2C606.19 16.68 605.89 17.32 605.77 18.12H593.23C593.55 15.64 594.43 13.38 595.87 11.34C597.35 9.30001 599.35 7.68001 601.87 6.48001C604.43 5.24001 607.43 4.62001 610.87 4.62001ZM598.39 51.48C596.31 51.48 594.67 50.98 593.47 49.98C592.31 48.98 591.73 47.68 591.73 46.08C591.73 44.68 592.11 43.38 592.87 42.18C593.67 40.98 594.75 40.04 596.11 39.36C597.51 38.64 599.05 38.28 600.73 38.28C602.77 38.28 604.37 38.8 605.53 39.84C606.69 40.84 607.27 42.14 607.27 43.74C607.27 45.14 606.89 46.44 606.13 47.64C605.37 48.8 604.31 49.74 602.95 50.46C601.59 51.14 600.07 51.48 598.39 51.48Z" fill="#F8FF24"/>
<path d="M415.79 84.52L398.57 127H382.01L381.35 102.88L372.17 127H355.61L353.39 84.52H367.73L366.89 111.28L377.33 84.52H391.85L392.87 111.28L401.45 84.52H415.79Z" fill="#E61E24"/>
<path d="M434.606 92.74C439.086 92.74 442.646 93.94 445.286 96.34C447.926 98.7 449.246 101.94 449.246 106.06C449.246 107.22 449.126 108.46 448.886 109.78C448.606 111.1 448.386 111.98 448.226 112.42H426.866C426.826 112.66 426.806 113 426.806 113.44C426.806 115.68 427.766 116.8 429.686 116.8C431.166 116.8 432.326 116.14 433.166 114.82H447.266C446.386 117.22 445.006 119.38 443.126 121.3C441.246 123.18 439.026 124.68 436.466 125.8C433.946 126.88 431.286 127.42 428.486 127.42C424.006 127.42 420.446 126.24 417.806 123.88C415.206 121.48 413.906 118.16 413.906 113.92C413.906 112.68 414.026 111.4 414.266 110.08C414.906 106.56 416.186 103.5 418.106 100.9C420.026 98.26 422.406 96.24 425.246 94.84C428.126 93.44 431.246 92.74 434.606 92.74ZM435.866 106.96C435.906 106.76 435.926 106.46 435.926 106.06C435.926 105.1 435.626 104.38 435.026 103.9C434.426 103.42 433.666 103.18 432.746 103.18C430.346 103.18 428.726 104.44 427.886 106.96H435.866Z" fill="#E61E24"/>
<path d="M462.814 105.7C463.534 101.5 465.034 97.76 467.314 94.48C469.594 91.2 472.474 88.66 475.954 86.86C479.434 85.02 483.314 84.1 487.594 84.1C491.274 84.1 494.434 84.8 497.074 86.2C499.754 87.56 501.794 89.5 503.194 92.02C504.594 94.54 505.274 97.48 505.234 100.84H491.194C490.794 99.44 490.074 98.36 489.034 97.6C487.994 96.8 486.714 96.4 485.194 96.4C482.954 96.4 481.034 97.24 479.434 98.92C477.834 100.6 476.794 102.86 476.314 105.7C476.154 106.5 476.074 107.36 476.074 108.28C476.074 110.36 476.574 112 477.574 113.2C478.614 114.4 480.074 115 481.954 115C483.474 115 484.894 114.62 486.214 113.86C487.534 113.06 488.634 111.96 489.514 110.56H503.554C502.354 113.92 500.614 116.86 498.334 119.38C496.054 121.9 493.334 123.86 490.174 125.26C487.054 126.62 483.654 127.3 479.974 127.3C476.254 127.3 473.074 126.62 470.434 125.26C467.794 123.86 465.794 121.9 464.434 119.38C463.074 116.82 462.394 113.86 462.394 110.5C462.394 108.86 462.534 107.26 462.814 105.7Z" fill="#E61E24"/>
<path d="M506.61 110.08C507.25 106.52 508.41 103.44 510.09 100.84C511.77 98.2 513.79 96.2 516.15 94.84C518.51 93.44 521.01 92.74 523.65 92.74C525.85 92.74 527.67 93.2 529.11 94.12C530.55 95 531.55 96.22 532.11 97.78L532.95 93.16H546.21L540.21 127H526.95L527.79 122.38C526.67 123.94 525.23 125.18 523.47 126.1C521.71 126.98 519.73 127.42 517.53 127.42C514.13 127.42 511.39 126.28 509.31 124C507.23 121.72 506.19 118.56 506.19 114.52C506.19 113 506.33 111.52 506.61 110.08ZM529.95 110.08C530.03 109.72 530.07 109.24 530.07 108.64C530.07 107.28 529.71 106.24 528.99 105.52C528.27 104.76 527.29 104.38 526.05 104.38C524.61 104.38 523.33 104.88 522.21 105.88C521.13 106.88 520.43 108.28 520.11 110.08C520.03 110.44 519.99 110.92 519.99 111.52C519.99 112.88 520.35 113.94 521.07 114.7C521.79 115.42 522.77 115.78 524.01 115.78C525.45 115.78 526.71 115.28 527.79 114.28C528.91 113.28 529.63 111.88 529.95 110.08Z" fill="#E61E24"/>
<path d="M575.891 92.92C579.171 92.92 581.691 93.88 583.451 95.8C585.211 97.68 586.091 100.28 586.091 103.6C586.091 104.8 585.971 106.06 585.731 107.38L582.251 127H568.991L572.171 109.06C572.251 108.42 572.291 107.98 572.291 107.74C572.291 106.5 571.931 105.54 571.211 104.86C570.531 104.18 569.571 103.84 568.331 103.84C566.891 103.84 565.671 104.3 564.671 105.22C563.671 106.14 563.011 107.4 562.691 109L559.511 127H546.191L552.191 93.16H565.511L564.611 98.26C565.931 96.66 567.551 95.38 569.471 94.42C571.391 93.42 573.531 92.92 575.891 92.92Z" fill="#E61E24"/>
<path d="M645.023 84.52L637.523 127H624.203L627.143 110.44H614.483L611.543 127H598.223L605.723 84.52H619.043L616.343 99.82H629.003L631.703 84.52H645.023Z" fill="#E61E24"/>
<path d="M665.056 92.74C669.536 92.74 673.096 93.94 675.736 96.34C678.376 98.7 679.696 101.94 679.696 106.06C679.696 107.22 679.576 108.46 679.336 109.78C679.056 111.1 678.836 111.98 678.676 112.42H657.316C657.276 112.66 657.256 113 657.256 113.44C657.256 115.68 658.216 116.8 660.136 116.8C661.616 116.8 662.776 116.14 663.616 114.82H677.716C676.836 117.22 675.456 119.38 673.576 121.3C671.696 123.18 669.476 124.68 666.916 125.8C664.396 126.88 661.736 127.42 658.936 127.42C654.456 127.42 650.896 126.24 648.256 123.88C645.656 121.48 644.356 118.16 644.356 113.92C644.356 112.68 644.476 111.4 644.716 110.08C645.356 106.56 646.636 103.5 648.556 100.9C650.476 98.26 652.856 96.24 655.696 94.84C658.576 93.44 661.696 92.74 665.056 92.74ZM666.316 106.96C666.356 106.76 666.376 106.46 666.376 106.06C666.376 105.1 666.076 104.38 665.476 103.9C664.876 103.42 664.116 103.18 663.196 103.18C660.796 103.18 659.176 104.44 658.336 106.96H666.316Z" fill="#E61E24"/>
<path d="M701.668 82.6L693.808 127H680.488L688.348 82.6H701.668Z" fill="#E61E24"/>
<path d="M718.304 97.78C719.424 96.22 720.844 95 722.564 94.12C724.324 93.2 726.304 92.74 728.504 92.74C731.904 92.74 734.644 93.88 736.724 96.16C738.804 98.44 739.844 101.6 739.844 105.64C739.844 107.16 739.704 108.64 739.424 110.08C738.784 113.64 737.624 116.74 735.944 119.38C734.264 121.98 732.244 123.98 729.884 125.38C727.524 126.74 725.024 127.42 722.384 127.42C720.184 127.42 718.364 126.98 716.924 126.1C715.524 125.18 714.544 123.94 713.984 122.38L710.324 143.2H697.004L705.824 93.16H719.144L718.304 97.78ZM725.924 110.08C726.004 109.72 726.044 109.24 726.044 108.64C726.044 107.28 725.684 106.24 724.964 105.52C724.244 104.76 723.264 104.38 722.024 104.38C720.584 104.38 719.304 104.88 718.184 105.88C717.104 106.88 716.404 108.28 716.084 110.08C716.004 110.44 715.964 110.92 715.964 111.52C715.964 112.88 716.324 113.94 717.044 114.7C717.764 115.42 718.744 115.78 719.984 115.78C721.424 115.78 722.684 115.28 723.764 114.28C724.884 113.28 725.604 111.88 725.924 110.08Z" fill="#E61E24"/>
<path d="M766.525 81.7L759.985 110.14H748.585L752.005 81.7H766.525ZM751.225 127.48C749.145 127.48 747.505 126.98 746.305 125.98C745.145 124.98 744.565 123.68 744.565 122.08C744.565 120.68 744.945 119.38 745.705 118.18C746.505 116.98 747.585 116.04 748.945 115.36C750.345 114.64 751.885 114.28 753.565 114.28C755.605 114.28 757.205 114.8 758.365 115.84C759.525 116.84 760.105 118.14 760.105 119.74C760.105 121.14 759.725 122.44 758.965 123.64C758.205 124.8 757.145 125.74 755.785 126.46C754.425 127.14 752.905 127.48 751.225 127.48Z" fill="#E61E24"/>
<path d="M33.7648 44.58H19.6048L16.3648 51H2.38477L25.4248 8.52001H40.7848L48.7648 51H34.7248L33.7648 44.58ZM32.3248 34.56L30.5848 22.74L24.6448 34.56H32.3248Z" stroke="black" stroke-opacity="0.5" stroke-width="2" mask="url(#path-1-outside-1_734_3)"/>
<path d="M70.031 23.4C71.751 21.44 73.671 19.88 75.791 18.72C77.951 17.52 80.091 16.92 82.211 16.92L79.751 31.14H75.971C73.451 31.14 71.511 31.58 70.151 32.46C68.831 33.34 67.971 34.9 67.571 37.14L65.111 51H51.791L57.791 17.16H71.111L70.031 23.4Z" stroke="black" stroke-opacity="0.5" stroke-width="2" mask="url(#path-1-outside-1_734_3)"/>
<path d="M101.339 16.74C105.819 16.74 109.379 17.94 112.019 20.34C114.659 22.7 115.979 25.94 115.979 30.06C115.979 31.22 115.859 32.46 115.619 33.78C115.339 35.1 115.119 35.98 114.959 36.42H93.5988C93.5588 36.66 93.5388 37 93.5388 37.44C93.5388 39.68 94.4988 40.8 96.4188 40.8C97.8988 40.8 99.0588 40.14 99.8988 38.82H113.999C113.119 41.22 111.739 43.38 109.859 45.3C107.979 47.18 105.759 48.68 103.199 49.8C100.679 50.88 98.0188 51.42 95.2188 51.42C90.7388 51.42 87.1788 50.24 84.5388 47.88C81.9388 45.48 80.6388 42.16 80.6388 37.92C80.6388 36.68 80.7588 35.4 80.9988 34.08C81.6388 30.56 82.9188 27.5 84.8388 24.9C86.7588 22.26 89.1388 20.24 91.9788 18.84C94.8588 17.44 97.9788 16.74 101.339 16.74ZM102.599 30.96C102.639 30.76 102.659 30.46 102.659 30.06C102.659 29.1 102.359 28.38 101.759 27.9C101.159 27.42 100.399 27.18 99.4788 27.18C97.0788 27.18 95.4588 28.44 94.6188 30.96H102.599Z" stroke="black" stroke-opacity="0.5" stroke-width="2" mask="url(#path-1-outside-1_734_3)"/>
<path d="M175.267 8.52001L154.807 38.1L152.527 51H139.207L141.487 38.1L131.467 8.52001H146.707L150.847 23.58L160.267 8.52001H175.267Z" stroke="black" stroke-opacity="0.5" stroke-width="2" mask="url(#path-1-outside-1_734_3)"/>
<path d="M186.815 51.42C183.815 51.42 181.175 50.84 178.895 49.68C176.615 48.52 174.835 46.88 173.555 44.76C172.275 42.6 171.635 40.1 171.635 37.26C171.635 33.34 172.555 29.82 174.395 26.7C176.275 23.58 178.835 21.14 182.075 19.38C185.315 17.62 188.935 16.74 192.935 16.74C195.935 16.74 198.575 17.34 200.855 18.54C203.135 19.7 204.915 21.36 206.195 23.52C207.475 25.64 208.115 28.12 208.115 30.96C208.115 34.88 207.195 38.4 205.355 41.52C203.515 44.64 200.975 47.08 197.735 48.84C194.495 50.56 190.855 51.42 186.815 51.42ZM188.855 39.9C190.575 39.9 191.935 39.12 192.935 37.56C193.935 36 194.435 34.26 194.435 32.34C194.435 30.98 194.095 29.96 193.415 29.28C192.775 28.6 191.935 28.26 190.895 28.26C189.175 28.26 187.815 29.04 186.815 30.6C185.815 32.16 185.315 33.9 185.315 35.82C185.315 37.18 185.635 38.2 186.275 38.88C186.915 39.56 187.775 39.9 188.855 39.9Z" stroke="black" stroke-opacity="0.5" stroke-width="2" mask="url(#path-1-outside-1_734_3)"/>
<path d="M250.759 17.16L244.759 51H231.439L232.339 45.9C231.019 47.5 229.399 48.8 227.479 49.8C225.559 50.76 223.419 51.24 221.059 51.24C217.779 51.24 215.259 50.3 213.499 48.42C211.739 46.5 210.859 43.88 210.859 40.56C210.859 39.36 210.979 38.1 211.219 36.78L214.699 17.16H227.959L224.779 35.1C224.699 35.74 224.659 36.18 224.659 36.42C224.659 37.66 224.999 38.62 225.679 39.3C226.399 39.98 227.379 40.32 228.619 40.32C230.059 40.32 231.279 39.86 232.279 38.94C233.279 38.02 233.939 36.76 234.259 35.16L237.439 17.16H250.759Z" stroke="black" stroke-opacity="0.5" stroke-width="2" mask="url(#path-1-outside-1_734_3)"/>
<path d="M298.471 8.52001L296.611 19.08H279.931L278.911 24.96H290.911L289.111 34.98H277.111L274.291 51H260.971L268.471 8.52001H298.471Z" stroke="black" stroke-opacity="0.5" stroke-width="2" mask="url(#path-1-outside-1_734_3)"/>
<path d="M308.682 14.46C306.602 14.46 304.962 13.96 303.762 12.96C302.602 11.96 302.022 10.66 302.022 9.06001C302.022 7.66001 302.402 6.36001 303.162 5.16001C303.922 3.96001 304.982 3.02001 306.342 2.34001C307.742 1.62001 309.282 1.26001 310.962 1.26001C313.002 1.26001 314.602 1.78001 315.762 2.82001C316.962 3.82001 317.562 5.14001 317.562 6.78001C317.562 8.18001 317.182 9.46001 316.422 10.62C315.662 11.78 314.602 12.72 313.242 13.44C311.882 14.12 310.362 14.46 308.682 14.46ZM314.802 17.16L308.802 51H295.482L301.482 17.16H314.802Z" stroke="black" stroke-opacity="0.5" stroke-width="2" mask="url(#path-1-outside-1_734_3)"/>
<path d="M333.058 23.4C334.778 21.44 336.698 19.88 338.818 18.72C340.978 17.52 343.118 16.92 345.238 16.92L342.778 31.14H338.998C336.478 31.14 334.538 31.58 333.178 32.46C331.858 33.34 330.998 34.9 330.598 37.14L328.138 51H314.818L320.818 17.16H334.138L333.058 23.4Z" stroke="black" stroke-opacity="0.5" stroke-width="2" mask="url(#path-1-outside-1_734_3)"/>
<path d="M364.366 16.74C368.846 16.74 372.406 17.94 375.046 20.34C377.686 22.7 379.006 25.94 379.006 30.06C379.006 31.22 378.886 32.46 378.646 33.78C378.366 35.1 378.146 35.98 377.986 36.42H356.626C356.586 36.66 356.566 37 356.566 37.44C356.566 39.68 357.526 40.8 359.446 40.8C360.926 40.8 362.086 40.14 362.926 38.82H377.026C376.146 41.22 374.766 43.38 372.886 45.3C371.006 47.18 368.786 48.68 366.226 49.8C363.706 50.88 361.046 51.42 358.246 51.42C353.766 51.42 350.206 50.24 347.566 47.88C344.966 45.48 343.666 42.16 343.666 37.92C343.666 36.68 343.786 35.4 344.026 34.08C344.666 30.56 345.946 27.5 347.866 24.9C349.786 22.26 352.166 20.24 355.006 18.84C357.886 17.44 361.006 16.74 364.366 16.74ZM365.626 30.96C365.666 30.76 365.686 30.46 365.686 30.06C365.686 29.1 365.386 28.38 364.786 27.9C364.186 27.42 363.426 27.18 362.506 27.18C360.106 27.18 358.486 28.44 357.646 30.96H365.626Z" stroke="black" stroke-opacity="0.5" stroke-width="2" mask="url(#path-1-outside-1_734_3)"/>
<path d="M417.294 8.52001C421.854 8.52001 425.314 9.54001 427.674 11.58C430.034 13.62 431.214 16.34 431.214 19.74C431.214 20.74 431.134 21.64 430.974 22.44C430.454 25.32 429.214 27.86 427.254 30.06C425.294 32.22 422.754 33.78 419.634 34.74L425.994 51H411.354L406.014 35.76L403.314 51H389.994L397.494 8.52001H417.294ZM407.574 26.88H412.854C414.134 26.88 415.134 26.6 415.854 26.04C416.614 25.44 417.114 24.52 417.354 23.28C417.394 23.08 417.414 22.82 417.414 22.5C417.414 21.62 417.134 20.94 416.574 20.46C416.014 19.94 415.194 19.68 414.114 19.68H408.834L407.574 26.88Z" stroke="black" stroke-opacity="0.5" stroke-width="2" mask="url(#path-1-outside-1_734_3)"/>
<path d="M451.729 16.74C456.209 16.74 459.769 17.94 462.409 20.34C465.049 22.7 466.369 25.94 466.369 30.06C466.369 31.22 466.249 32.46 466.009 33.78C465.729 35.1 465.509 35.98 465.349 36.42H443.989C443.949 36.66 443.929 37 443.929 37.44C443.929 39.68 444.889 40.8 446.809 40.8C448.289 40.8 449.449 40.14 450.289 38.82H464.389C463.509 41.22 462.129 43.38 460.249 45.3C458.369 47.18 456.149 48.68 453.589 49.8C451.069 50.88 448.409 51.42 445.609 51.42C441.129 51.42 437.569 50.24 434.929 47.88C432.329 45.48 431.029 42.16 431.029 37.92C431.029 36.68 431.149 35.4 431.389 34.08C432.029 30.56 433.309 27.5 435.229 24.9C437.149 22.26 439.529 20.24 442.369 18.84C445.249 17.44 448.369 16.74 451.729 16.74ZM452.989 30.96C453.029 30.76 453.049 30.46 453.049 30.06C453.049 29.1 452.749 28.38 452.149 27.9C451.549 27.42 450.789 27.18 449.869 27.18C447.469 27.18 445.849 28.44 445.009 30.96H452.989Z" stroke="black" stroke-opacity="0.5" stroke-width="2" mask="url(#path-1-outside-1_734_3)"/>
<path d="M468.362 34.08C469.002 30.52 470.162 27.44 471.842 24.84C473.522 22.2 475.542 20.2 477.902 18.84C480.262 17.44 482.762 16.74 485.402 16.74C487.602 16.74 489.422 17.2 490.862 18.12C492.302 19 493.302 20.22 493.862 21.78L494.702 17.16H507.962L501.962 51H488.702L489.542 46.38C488.422 47.94 486.982 49.18 485.222 50.1C483.462 50.98 481.482 51.42 479.282 51.42C475.882 51.42 473.142 50.28 471.062 48C468.982 45.72 467.942 42.56 467.942 38.52C467.942 37 468.082 35.52 468.362 34.08ZM491.702 34.08C491.782 33.72 491.822 33.24 491.822 32.64C491.822 31.28 491.462 30.24 490.742 29.52C490.022 28.76 489.042 28.38 487.802 28.38C486.362 28.38 485.082 28.88 483.962 29.88C482.882 30.88 482.182 32.28 481.862 34.08C481.782 34.44 481.742 34.92 481.742 35.52C481.742 36.88 482.102 37.94 482.822 38.7C483.542 39.42 484.522 39.78 485.762 39.78C487.202 39.78 488.462 39.28 489.542 38.28C490.662 37.28 491.382 35.88 491.702 34.08Z" stroke="black" stroke-opacity="0.5" stroke-width="2" mask="url(#path-1-outside-1_734_3)"/>
<path d="M509.143 34.08C509.783 30.52 510.943 27.44 512.623 24.84C514.303 22.2 516.323 20.2 518.683 18.84C521.043 17.44 523.543 16.74 526.183 16.74C528.383 16.74 530.183 17.2 531.583 18.12C533.023 19 534.023 20.22 534.583 21.78L537.283 6.60001H550.603L542.743 51H529.423L530.263 46.38C529.143 47.94 527.703 49.18 525.943 50.1C524.223 50.98 522.263 51.42 520.063 51.42C516.663 51.42 513.923 50.28 511.843 48C509.763 45.72 508.723 42.56 508.723 38.52C508.723 37 508.863 35.52 509.143 34.08ZM532.483 34.08C532.563 33.72 532.603 33.24 532.603 32.64C532.603 31.28 532.243 30.24 531.523 29.52C530.803 28.76 529.823 28.38 528.583 28.38C527.143 28.38 525.863 28.88 524.743 29.88C523.663 30.88 522.963 32.28 522.643 34.08C522.563 34.44 522.523 34.92 522.523 35.52C522.523 36.88 522.883 37.94 523.603 38.7C524.323 39.42 525.303 39.78 526.543 39.78C527.983 39.78 529.243 39.28 530.323 38.28C531.443 37.28 532.163 35.88 532.483 34.08Z" stroke="black" stroke-opacity="0.5" stroke-width="2" mask="url(#path-1-outside-1_734_3)"/>
<path d="M565.945 17.16L569.245 34.32L578.245 17.16H592.945L562.465 67.2H547.885L559.525 49.32L551.125 17.16H565.945Z" stroke="black" stroke-opacity="0.5" stroke-width="2" mask="url(#path-1-outside-1_734_3)"/>
<path d="M610.87 4.62001C614.75 4.62001 617.83 5.50001 620.11 7.26001C622.39 8.98001 623.53 11.5 623.53 14.82C623.53 15.82 623.45 16.78 623.29 17.7C622.65 21.22 620.95 24.06 618.19 26.22C615.47 28.38 612.17 29.5 608.29 29.58L607.21 33.84H595.45L597.31 21.12H602.35C604.79 21.12 606.67 20.86 607.99 20.34C609.35 19.78 610.11 18.88 610.27 17.64L610.33 17.16C610.33 16.6 610.17 16.18 609.85 15.9C609.53 15.58 609.11 15.42 608.59 15.42C607.79 15.42 607.15 15.68 606.67 16.2C606.19 16.68 605.89 17.32 605.77 18.12H593.23C593.55 15.64 594.43 13.38 595.87 11.34C597.35 9.30001 599.35 7.68001 601.87 6.48001C604.43 5.24001 607.43 4.62001 610.87 4.62001ZM598.39 51.48C596.31 51.48 594.67 50.98 593.47 49.98C592.31 48.98 591.73 47.68 591.73 46.08C591.73 44.68 592.11 43.38 592.87 42.18C593.67 40.98 594.75 40.04 596.11 39.36C597.51 38.64 599.05 38.28 600.73 38.28C602.77 38.28 604.37 38.8 605.53 39.84C606.69 40.84 607.27 42.14 607.27 43.74C607.27 45.14 606.89 46.44 606.13 47.64C605.37 48.8 604.31 49.74 602.95 50.46C601.59 51.14 600.07 51.48 598.39 51.48Z" stroke="black" stroke-opacity="0.5" stroke-width="2" mask="url(#path-1-outside-1_734_3)"/>
<path d="M415.79 84.52L398.57 127H382.01L381.35 102.88L372.17 127H355.61L353.39 84.52H367.73L366.89 111.28L377.33 84.52H391.85L392.87 111.28L401.45 84.52H415.79Z" stroke="black" stroke-opacity="0.5" stroke-width="2" mask="url(#path-1-outside-1_734_3)"/>
<path d="M434.606 92.74C439.086 92.74 442.646 93.94 445.286 96.34C447.926 98.7 449.246 101.94 449.246 106.06C449.246 107.22 449.126 108.46 448.886 109.78C448.606 111.1 448.386 111.98 448.226 112.42H426.866C426.826 112.66 426.806 113 426.806 113.44C426.806 115.68 427.766 116.8 429.686 116.8C431.166 116.8 432.326 116.14 433.166 114.82H447.266C446.386 117.22 445.006 119.38 443.126 121.3C441.246 123.18 439.026 124.68 436.466 125.8C433.946 126.88 431.286 127.42 428.486 127.42C424.006 127.42 420.446 126.24 417.806 123.88C415.206 121.48 413.906 118.16 413.906 113.92C413.906 112.68 414.026 111.4 414.266 110.08C414.906 106.56 416.186 103.5 418.106 100.9C420.026 98.26 422.406 96.24 425.246 94.84C428.126 93.44 431.246 92.74 434.606 92.74ZM435.866 106.96C435.906 106.76 435.926 106.46 435.926 106.06C435.926 105.1 435.626 104.38 435.026 103.9C434.426 103.42 433.666 103.18 432.746 103.18C430.346 103.18 428.726 104.44 427.886 106.96H435.866Z" stroke="black" stroke-opacity="0.5" stroke-width="2" mask="url(#path-1-outside-1_734_3)"/>
<path d="M462.814 105.7C463.534 101.5 465.034 97.76 467.314 94.48C469.594 91.2 472.474 88.66 475.954 86.86C479.434 85.02 483.314 84.1 487.594 84.1C491.274 84.1 494.434 84.8 497.074 86.2C499.754 87.56 501.794 89.5 503.194 92.02C504.594 94.54 505.274 97.48 505.234 100.84H491.194C490.794 99.44 490.074 98.36 489.034 97.6C487.994 96.8 486.714 96.4 485.194 96.4C482.954 96.4 481.034 97.24 479.434 98.92C477.834 100.6 476.794 102.86 476.314 105.7C476.154 106.5 476.074 107.36 476.074 108.28C476.074 110.36 476.574 112 477.574 113.2C478.614 114.4 480.074 115 481.954 115C483.474 115 484.894 114.62 486.214 113.86C487.534 113.06 488.634 111.96 489.514 110.56H503.554C502.354 113.92 500.614 116.86 498.334 119.38C496.054 121.9 493.334 123.86 490.174 125.26C487.054 126.62 483.654 127.3 479.974 127.3C476.254 127.3 473.074 126.62 470.434 125.26C467.794 123.86 465.794 121.9 464.434 119.38C463.074 116.82 462.394 113.86 462.394 110.5C462.394 108.86 462.534 107.26 462.814 105.7Z" stroke="black" stroke-opacity="0.5" stroke-width="2" mask="url(#path-1-outside-1_734_3)"/>
<path d="M506.61 110.08C507.25 106.52 508.41 103.44 510.09 100.84C511.77 98.2 513.79 96.2 516.15 94.84C518.51 93.44 521.01 92.74 523.65 92.74C525.85 92.74 527.67 93.2 529.11 94.12C530.55 95 531.55 96.22 532.11 97.78L532.95 93.16H546.21L540.21 127H526.95L527.79 122.38C526.67 123.94 525.23 125.18 523.47 126.1C521.71 126.98 519.73 127.42 517.53 127.42C514.13 127.42 511.39 126.28 509.31 124C507.23 121.72 506.19 118.56 506.19 114.52C506.19 113 506.33 111.52 506.61 110.08ZM529.95 110.08C530.03 109.72 530.07 109.24 530.07 108.64C530.07 107.28 529.71 106.24 528.99 105.52C528.27 104.76 527.29 104.38 526.05 104.38C524.61 104.38 523.33 104.88 522.21 105.88C521.13 106.88 520.43 108.28 520.11 110.08C520.03 110.44 519.99 110.92 519.99 111.52C519.99 112.88 520.35 113.94 521.07 114.7C521.79 115.42 522.77 115.78 524.01 115.78C525.45 115.78 526.71 115.28 527.79 114.28C528.91 113.28 529.63 111.88 529.95 110.08Z" stroke="black" stroke-opacity="0.5" stroke-width="2" mask="url(#path-1-outside-1_734_3)"/>
<path d="M575.891 92.92C579.171 92.92 581.691 93.88 583.451 95.8C585.211 97.68 586.091 100.28 586.091 103.6C586.091 104.8 585.971 106.06 585.731 107.38L582.251 127H568.991L572.171 109.06C572.251 108.42 572.291 107.98 572.291 107.74C572.291 106.5 571.931 105.54 571.211 104.86C570.531 104.18 569.571 103.84 568.331 103.84C566.891 103.84 565.671 104.3 564.671 105.22C563.671 106.14 563.011 107.4 562.691 109L559.511 127H546.191L552.191 93.16H565.511L564.611 98.26C565.931 96.66 567.551 95.38 569.471 94.42C571.391 93.42 573.531 92.92 575.891 92.92Z" stroke="black" stroke-opacity="0.5" stroke-width="2" mask="url(#path-1-outside-1_734_3)"/>
<path d="M645.023 84.52L637.523 127H624.203L627.143 110.44H614.483L611.543 127H598.223L605.723 84.52H619.043L616.343 99.82H629.003L631.703 84.52H645.023Z" stroke="black" stroke-opacity="0.5" stroke-width="2" mask="url(#path-1-outside-1_734_3)"/>
<path d="M665.056 92.74C669.536 92.74 673.096 93.94 675.736 96.34C678.376 98.7 679.696 101.94 679.696 106.06C679.696 107.22 679.576 108.46 679.336 109.78C679.056 111.1 678.836 111.98 678.676 112.42H657.316C657.276 112.66 657.256 113 657.256 113.44C657.256 115.68 658.216 116.8 660.136 116.8C661.616 116.8 662.776 116.14 663.616 114.82H677.716C676.836 117.22 675.456 119.38 673.576 121.3C671.696 123.18 669.476 124.68 666.916 125.8C664.396 126.88 661.736 127.42 658.936 127.42C654.456 127.42 650.896 126.24 648.256 123.88C645.656 121.48 644.356 118.16 644.356 113.92C644.356 112.68 644.476 111.4 644.716 110.08C645.356 106.56 646.636 103.5 648.556 100.9C650.476 98.26 652.856 96.24 655.696 94.84C658.576 93.44 661.696 92.74 665.056 92.74ZM666.316 106.96C666.356 106.76 666.376 106.46 666.376 106.06C666.376 105.1 666.076 104.38 665.476 103.9C664.876 103.42 664.116 103.18 663.196 103.18C660.796 103.18 659.176 104.44 658.336 106.96H666.316Z" stroke="black" stroke-opacity="0.5" stroke-width="2" mask="url(#path-1-outside-1_734_3)"/>
<path d="M701.668 82.6L693.808 127H680.488L688.348 82.6H701.668Z" stroke="black" stroke-opacity="0.5" stroke-width="2" mask="url(#path-1-outside-1_734_3)"/>
<path d="M718.304 97.78C719.424 96.22 720.844 95 722.564 94.12C724.324 93.2 726.304 92.74 728.504 92.74C731.904 92.74 734.644 93.88 736.724 96.16C738.804 98.44 739.844 101.6 739.844 105.64C739.844 107.16 739.704 108.64 739.424 110.08C738.784 113.64 737.624 116.74 735.944 119.38C734.264 121.98 732.244 123.98 729.884 125.38C727.524 126.74 725.024 127.42 722.384 127.42C720.184 127.42 718.364 126.98 716.924 126.1C715.524 125.18 714.544 123.94 713.984 122.38L710.324 143.2H697.004L705.824 93.16H719.144L718.304 97.78ZM725.924 110.08C726.004 109.72 726.044 109.24 726.044 108.64C726.044 107.28 725.684 106.24 724.964 105.52C724.244 104.76 723.264 104.38 722.024 104.38C720.584 104.38 719.304 104.88 718.184 105.88C717.104 106.88 716.404 108.28 716.084 110.08C716.004 110.44 715.964 110.92 715.964 111.52C715.964 112.88 716.324 113.94 717.044 114.7C717.764 115.42 718.744 115.78 719.984 115.78C721.424 115.78 722.684 115.28 723.764 114.28C724.884 113.28 725.604 111.88 725.924 110.08Z" stroke="black" stroke-opacity="0.5" stroke-width="2" mask="url(#path-1-outside-1_734_3)"/>
<path d="M766.525 81.7L759.985 110.14H748.585L752.005 81.7H766.525ZM751.225 127.48C749.145 127.48 747.505 126.98 746.305 125.98C745.145 124.98 744.565 123.68 744.565 122.08C744.565 120.68 744.945 119.38 745.705 118.18C746.505 116.98 747.585 116.04 748.945 115.36C750.345 114.64 751.885 114.28 753.565 114.28C755.605 114.28 757.205 114.8 758.365 115.84C759.525 116.84 760.105 118.14 760.105 119.74C760.105 121.14 759.725 122.44 758.965 123.64C758.205 124.8 757.145 125.74 755.785 126.46C754.425 127.14 752.905 127.48 751.225 127.48Z" stroke="black" stroke-opacity="0.5" stroke-width="2" mask="url(#path-1-outside-1_734_3)"/>
</svg>
