<svg width="768" height="144" viewBox="0 0 768 144" fill="none" xmlns="http://www.w3.org/2000/svg">
<mask id="path-1-outside-1_734_3" maskUnits="userSpaceOnUse" x="0.384766" y="0" width="768" height="144" fill="black">
<rect fill="white" x="0.384766" width="768" height="144"/>
<path d="M33.7648 44.32H19.6048L16.3648 50.74H2.38477L25.4248 8.26H40.7848L48.7648 50.74H34.7248L33.7648 44.32ZM32.3248 34.3L30.5848 22.48L24.6448 34.3H32.3248Z"/>
<path d="M70.031 23.14C71.751 21.18 73.671 19.62 75.791 18.46C77.951 17.26 80.091 16.66 82.211 16.66L79.751 30.88H75.971C73.451 30.88 71.511 31.32 70.151 32.2C68.831 33.08 67.971 34.64 67.571 36.88L65.111 50.74H51.791L57.791 16.9H71.111L70.031 23.14Z"/>
<path d="M101.339 16.48C105.819 16.48 109.379 17.68 112.019 20.08C114.659 22.44 115.979 25.68 115.979 29.8C115.979 30.96 115.859 32.2 115.619 33.52C115.339 34.84 115.119 35.72 114.959 36.16H93.5988C93.5588 36.4 93.5388 36.74 93.5388 37.18C93.5388 39.42 94.4988 40.54 96.4188 40.54C97.8988 40.54 99.0588 39.88 99.8988 38.56H113.999C113.119 40.96 111.739 43.12 109.859 45.04C107.979 46.92 105.759 48.42 103.199 49.54C100.679 50.62 98.0188 51.16 95.2188 51.16C90.7388 51.16 87.1788 49.98 84.5388 47.62C81.9388 45.22 80.6388 41.9 80.6388 37.66C80.6388 36.42 80.7588 35.14 80.9988 33.82C81.6388 30.3 82.9188 27.24 84.8388 24.64C86.7588 22 89.1388 19.98 91.9788 18.58C94.8588 17.18 97.9788 16.48 101.339 16.48ZM102.599 30.7C102.639 30.5 102.659 30.2 102.659 29.8C102.659 28.84 102.359 28.12 101.759 27.64C101.159 27.16 100.399 26.92 99.4788 26.92C97.0788 26.92 95.4588 28.18 94.6188 30.7H102.599Z"/>
<path d="M175.267 8.26L154.807 37.84L152.527 50.74H139.207L141.487 37.84L131.467 8.26H146.707L150.847 23.32L160.267 8.26H175.267Z"/>
<path d="M186.815 51.16C183.815 51.16 181.175 50.58 178.895 49.42C176.615 48.26 174.835 46.62 173.555 44.5C172.275 42.34 171.635 39.84 171.635 37C171.635 33.08 172.555 29.56 174.395 26.44C176.275 23.32 178.835 20.88 182.075 19.12C185.315 17.36 188.935 16.48 192.935 16.48C195.935 16.48 198.575 17.08 200.855 18.28C203.135 19.44 204.915 21.1 206.195 23.26C207.475 25.38 208.115 27.86 208.115 30.7C208.115 34.62 207.195 38.14 205.355 41.26C203.515 44.38 200.975 46.82 197.735 48.58C194.495 50.3 190.855 51.16 186.815 51.16ZM188.855 39.64C190.575 39.64 191.935 38.86 192.935 37.3C193.935 35.74 194.435 34 194.435 32.08C194.435 30.72 194.095 29.7 193.415 29.02C192.775 28.34 191.935 28 190.895 28C189.175 28 187.815 28.78 186.815 30.34C185.815 31.9 185.315 33.64 185.315 35.56C185.315 36.92 185.635 37.94 186.275 38.62C186.915 39.3 187.775 39.64 188.855 39.64Z"/>
<path d="M250.759 16.9L244.759 50.74H231.439L232.339 45.64C231.019 47.24 229.399 48.54 227.479 49.54C225.559 50.5 223.419 50.98 221.059 50.98C217.779 50.98 215.259 50.04 213.499 48.16C211.739 46.24 210.859 43.62 210.859 40.3C210.859 39.1 210.979 37.84 211.219 36.52L214.699 16.9H227.959L224.779 34.84C224.699 35.48 224.659 35.92 224.659 36.16C224.659 37.4 224.999 38.36 225.679 39.04C226.399 39.72 227.379 40.06 228.619 40.06C230.059 40.06 231.279 39.6 232.279 38.68C233.279 37.76 233.939 36.5 234.259 34.9L237.439 16.9H250.759Z"/>
<path d="M298.471 8.26L296.611 18.82H279.931L278.911 24.7H290.911L289.111 34.72H277.111L274.291 50.74H260.971L268.471 8.26H298.471Z"/>
<path d="M308.682 14.2C306.602 14.2 304.962 13.7 303.762 12.7C302.602 11.7 302.022 10.4 302.022 8.8C302.022 7.4 302.402 6.1 303.162 4.9C303.922 3.7 304.982 2.76 306.342 2.08C307.742 1.36 309.282 1 310.962 1C313.002 1 314.602 1.52 315.762 2.56C316.962 3.56 317.562 4.88 317.562 6.52C317.562 7.92 317.182 9.2 316.422 10.36C315.662 11.52 314.602 12.46 313.242 13.18C311.882 13.86 310.362 14.2 308.682 14.2ZM314.802 16.9L308.802 50.74H295.482L301.482 16.9H314.802Z"/>
<path d="M333.058 23.14C334.778 21.18 336.698 19.62 338.818 18.46C340.978 17.26 343.118 16.66 345.238 16.66L342.778 30.88H338.998C336.478 30.88 334.538 31.32 333.178 32.2C331.858 33.08 330.998 34.64 330.598 36.88L328.138 50.74H314.818L320.818 16.9H334.138L333.058 23.14Z"/>
<path d="M364.366 16.48C368.846 16.48 372.406 17.68 375.046 20.08C377.686 22.44 379.006 25.68 379.006 29.8C379.006 30.96 378.886 32.2 378.646 33.52C378.366 34.84 378.146 35.72 377.986 36.16H356.626C356.586 36.4 356.566 36.74 356.566 37.18C356.566 39.42 357.526 40.54 359.446 40.54C360.926 40.54 362.086 39.88 362.926 38.56H377.026C376.146 40.96 374.766 43.12 372.886 45.04C371.006 46.92 368.786 48.42 366.226 49.54C363.706 50.62 361.046 51.16 358.246 51.16C353.766 51.16 350.206 49.98 347.566 47.62C344.966 45.22 343.666 41.9 343.666 37.66C343.666 36.42 343.786 35.14 344.026 33.82C344.666 30.3 345.946 27.24 347.866 24.64C349.786 22 352.166 19.98 355.006 18.58C357.886 17.18 361.006 16.48 364.366 16.48ZM365.626 30.7C365.666 30.5 365.686 30.2 365.686 29.8C365.686 28.84 365.386 28.12 364.786 27.64C364.186 27.16 363.426 26.92 362.506 26.92C360.106 26.92 358.486 28.18 357.646 30.7H365.626Z"/>
<path d="M417.294 8.26C421.854 8.26 425.314 9.28 427.674 11.32C430.034 13.36 431.214 16.08 431.214 19.48C431.214 20.48 431.134 21.38 430.974 22.18C430.454 25.06 429.214 27.6 427.254 29.8C425.294 31.96 422.754 33.52 419.634 34.48L425.994 50.74H411.354L406.014 35.5L403.314 50.74H389.994L397.494 8.26H417.294ZM407.574 26.62H412.854C414.134 26.62 415.134 26.34 415.854 25.78C416.614 25.18 417.114 24.26 417.354 23.02C417.394 22.82 417.414 22.56 417.414 22.24C417.414 21.36 417.134 20.68 416.574 20.2C416.014 19.68 415.194 19.42 414.114 19.42H408.834L407.574 26.62Z"/>
<path d="M451.729 16.48C456.209 16.48 459.769 17.68 462.409 20.08C465.049 22.44 466.369 25.68 466.369 29.8C466.369 30.96 466.249 32.2 466.009 33.52C465.729 34.84 465.509 35.72 465.349 36.16H443.989C443.949 36.4 443.929 36.74 443.929 37.18C443.929 39.42 444.889 40.54 446.809 40.54C448.289 40.54 449.449 39.88 450.289 38.56H464.389C463.509 40.96 462.129 43.12 460.249 45.04C458.369 46.92 456.149 48.42 453.589 49.54C451.069 50.62 448.409 51.16 445.609 51.16C441.129 51.16 437.569 49.98 434.929 47.62C432.329 45.22 431.029 41.9 431.029 37.66C431.029 36.42 431.149 35.14 431.389 33.82C432.029 30.3 433.309 27.24 435.229 24.64C437.149 22 439.529 19.98 442.369 18.58C445.249 17.18 448.369 16.48 451.729 16.48ZM452.989 30.7C453.029 30.5 453.049 30.2 453.049 29.8C453.049 28.84 452.749 28.12 452.149 27.64C451.549 27.16 450.789 26.92 449.869 26.92C447.469 26.92 445.849 28.18 445.009 30.7H452.989Z"/>
<path d="M468.362 33.82C469.002 30.26 470.162 27.18 471.842 24.58C473.522 21.94 475.542 19.94 477.902 18.58C480.262 17.18 482.762 16.48 485.402 16.48C487.602 16.48 489.422 16.94 490.862 17.86C492.302 18.74 493.302 19.96 493.862 21.52L494.702 16.9H507.962L501.962 50.74H488.702L489.542 46.12C488.422 47.68 486.982 48.92 485.222 49.84C483.462 50.72 481.482 51.16 479.282 51.16C475.882 51.16 473.142 50.02 471.062 47.74C468.982 45.46 467.942 42.3 467.942 38.26C467.942 36.74 468.082 35.26 468.362 33.82ZM491.702 33.82C491.782 33.46 491.822 32.98 491.822 32.38C491.822 31.02 491.462 29.98 490.742 29.26C490.022 28.5 489.042 28.12 487.802 28.12C486.362 28.12 485.082 28.62 483.962 29.62C482.882 30.62 482.182 32.02 481.862 33.82C481.782 34.18 481.742 34.66 481.742 35.26C481.742 36.62 482.102 37.68 482.822 38.44C483.542 39.16 484.522 39.52 485.762 39.52C487.202 39.52 488.462 39.02 489.542 38.02C490.662 37.02 491.382 35.62 491.702 33.82Z"/>
<path d="M509.143 33.82C509.783 30.26 510.943 27.18 512.623 24.58C514.303 21.94 516.323 19.94 518.683 18.58C521.043 17.18 523.543 16.48 526.183 16.48C528.383 16.48 530.183 16.94 531.583 17.86C533.023 18.74 534.023 19.96 534.583 21.52L537.283 6.34H550.603L542.743 50.74H529.423L530.263 46.12C529.143 47.68 527.703 48.92 525.943 49.84C524.223 50.72 522.263 51.16 520.063 51.16C516.663 51.16 513.923 50.02 511.843 47.74C509.763 45.46 508.723 42.3 508.723 38.26C508.723 36.74 508.863 35.26 509.143 33.82ZM532.483 33.82C532.563 33.46 532.603 32.98 532.603 32.38C532.603 31.02 532.243 29.98 531.523 29.26C530.803 28.5 529.823 28.12 528.583 28.12C527.143 28.12 525.863 28.62 524.743 29.62C523.663 30.62 522.963 32.02 522.643 33.82C522.563 34.18 522.523 34.66 522.523 35.26C522.523 36.62 522.883 37.68 523.603 38.44C524.323 39.16 525.303 39.52 526.543 39.52C527.983 39.52 529.243 39.02 530.323 38.02C531.443 37.02 532.163 35.62 532.483 33.82Z"/>
<path d="M565.945 16.9L569.245 34.06L578.245 16.9H592.945L562.465 66.94H547.885L559.525 49.06L551.125 16.9H565.945Z"/>
<path d="M610.87 4.36C614.75 4.36 617.83 5.24 620.11 7C622.39 8.72 623.53 11.24 623.53 14.56C623.53 15.56 623.45 16.52 623.29 17.44C622.65 20.96 620.95 23.8 618.19 25.96C615.47 28.12 612.17 29.24 608.29 29.32L607.21 33.58H595.45L597.31 20.86H602.35C604.79 20.86 606.67 20.6 607.99 20.08C609.35 19.52 610.11 18.62 610.27 17.38L610.33 16.9C610.33 16.34 610.17 15.92 609.85 15.64C609.53 15.32 609.11 15.16 608.59 15.16C607.79 15.16 607.15 15.42 606.67 15.94C606.19 16.42 605.89 17.06 605.77 17.86H593.23C593.55 15.38 594.43 13.12 595.87 11.08C597.35 9.04 599.35 7.42 601.87 6.22C604.43 4.98 607.43 4.36 610.87 4.36ZM598.39 51.22C596.31 51.22 594.67 50.72 593.47 49.72C592.31 48.72 591.73 47.42 591.73 45.82C591.73 44.42 592.11 43.12 592.87 41.92C593.67 40.72 594.75 39.78 596.11 39.1C597.51 38.38 599.05 38.02 600.73 38.02C602.77 38.02 604.37 38.54 605.53 39.58C606.69 40.58 607.27 41.88 607.27 43.48C607.27 44.88 606.89 46.18 606.13 47.38C605.37 48.54 604.31 49.48 602.95 50.2C601.59 50.88 600.07 51.22 598.39 51.22Z"/>
<path d="M415.79 84.26L398.57 126.74H382.01L381.35 102.62L372.17 126.74H355.61L353.39 84.26H367.73L366.89 111.02L377.33 84.26H391.85L392.87 111.02L401.45 84.26H415.79Z"/>
<path d="M434.606 92.48C439.086 92.48 442.646 93.68 445.286 96.08C447.926 98.44 449.246 101.68 449.246 105.8C449.246 106.96 449.126 108.2 448.886 109.52C448.606 110.84 448.386 111.72 448.226 112.16H426.866C426.826 112.4 426.806 112.74 426.806 113.18C426.806 115.42 427.766 116.54 429.686 116.54C431.166 116.54 432.326 115.88 433.166 114.56H447.266C446.386 116.96 445.006 119.12 443.126 121.04C441.246 122.92 439.026 124.42 436.466 125.54C433.946 126.62 431.286 127.16 428.486 127.16C424.006 127.16 420.446 125.98 417.806 123.62C415.206 121.22 413.906 117.9 413.906 113.66C413.906 112.42 414.026 111.14 414.266 109.82C414.906 106.3 416.186 103.24 418.106 100.64C420.026 98 422.406 95.98 425.246 94.58C428.126 93.18 431.246 92.48 434.606 92.48ZM435.866 106.7C435.906 106.5 435.926 106.2 435.926 105.8C435.926 104.84 435.626 104.12 435.026 103.64C434.426 103.16 433.666 102.92 432.746 102.92C430.346 102.92 428.726 104.18 427.886 106.7H435.866Z"/>
<path d="M462.814 105.44C463.534 101.24 465.034 97.5 467.314 94.22C469.594 90.94 472.474 88.4 475.954 86.6C479.434 84.76 483.314 83.84 487.594 83.84C491.274 83.84 494.434 84.54 497.074 85.94C499.754 87.3 501.794 89.24 503.194 91.76C504.594 94.28 505.274 97.22 505.234 100.58H491.194C490.794 99.18 490.074 98.1 489.034 97.34C487.994 96.54 486.714 96.14 485.194 96.14C482.954 96.14 481.034 96.98 479.434 98.66C477.834 100.34 476.794 102.6 476.314 105.44C476.154 106.24 476.074 107.1 476.074 108.02C476.074 110.1 476.574 111.74 477.574 112.94C478.614 114.14 480.074 114.74 481.954 114.74C483.474 114.74 484.894 114.36 486.214 113.6C487.534 112.8 488.634 111.7 489.514 110.3H503.554C502.354 113.66 500.614 116.6 498.334 119.12C496.054 121.64 493.334 123.6 490.174 125C487.054 126.36 483.654 127.04 479.974 127.04C476.254 127.04 473.074 126.36 470.434 125C467.794 123.6 465.794 121.64 464.434 119.12C463.074 116.56 462.394 113.6 462.394 110.24C462.394 108.6 462.534 107 462.814 105.44Z"/>
<path d="M506.61 109.82C507.25 106.26 508.41 103.18 510.09 100.58C511.77 97.94 513.79 95.94 516.15 94.58C518.51 93.18 521.01 92.48 523.65 92.48C525.85 92.48 527.67 92.94 529.11 93.86C530.55 94.74 531.55 95.96 532.11 97.52L532.95 92.9H546.21L540.21 126.74H526.95L527.79 122.12C526.67 123.68 525.23 124.92 523.47 125.84C521.71 126.72 519.73 127.16 517.53 127.16C514.13 127.16 511.39 126.02 509.31 123.74C507.23 121.46 506.19 118.3 506.19 114.26C506.19 112.74 506.33 111.26 506.61 109.82ZM529.95 109.82C530.03 109.46 530.07 108.98 530.07 108.38C530.07 107.02 529.71 105.98 528.99 105.26C528.27 104.5 527.29 104.12 526.05 104.12C524.61 104.12 523.33 104.62 522.21 105.62C521.13 106.62 520.43 108.02 520.11 109.82C520.03 110.18 519.99 110.66 519.99 111.26C519.99 112.62 520.35 113.68 521.07 114.44C521.79 115.16 522.77 115.52 524.01 115.52C525.45 115.52 526.71 115.02 527.79 114.02C528.91 113.02 529.63 111.62 529.95 109.82Z"/>
<path d="M575.891 92.66C579.171 92.66 581.691 93.62 583.451 95.54C585.211 97.42 586.091 100.02 586.091 103.34C586.091 104.54 585.971 105.8 585.731 107.12L582.251 126.74H568.991L572.171 108.8C572.251 108.16 572.291 107.72 572.291 107.48C572.291 106.24 571.931 105.28 571.211 104.6C570.531 103.92 569.571 103.58 568.331 103.58C566.891 103.58 565.671 104.04 564.671 104.96C563.671 105.88 563.011 107.14 562.691 108.74L559.511 126.74H546.191L552.191 92.9H565.511L564.611 98C565.931 96.4 567.551 95.12 569.471 94.16C571.391 93.16 573.531 92.66 575.891 92.66Z"/>
<path d="M645.023 84.26L637.523 126.74H624.203L627.143 110.18H614.483L611.543 126.74H598.223L605.723 84.26H619.043L616.343 99.56H629.003L631.703 84.26H645.023Z"/>
<path d="M665.056 92.48C669.536 92.48 673.096 93.68 675.736 96.08C678.376 98.44 679.696 101.68 679.696 105.8C679.696 106.96 679.576 108.2 679.336 109.52C679.056 110.84 678.836 111.72 678.676 112.16H657.316C657.276 112.4 657.256 112.74 657.256 113.18C657.256 115.42 658.216 116.54 660.136 116.54C661.616 116.54 662.776 115.88 663.616 114.56H677.716C676.836 116.96 675.456 119.12 673.576 121.04C671.696 122.92 669.476 124.42 666.916 125.54C664.396 126.62 661.736 127.16 658.936 127.16C654.456 127.16 650.896 125.98 648.256 123.62C645.656 121.22 644.356 117.9 644.356 113.66C644.356 112.42 644.476 111.14 644.716 109.82C645.356 106.3 646.636 103.24 648.556 100.64C650.476 98 652.856 95.98 655.696 94.58C658.576 93.18 661.696 92.48 665.056 92.48ZM666.316 106.7C666.356 106.5 666.376 106.2 666.376 105.8C666.376 104.84 666.076 104.12 665.476 103.64C664.876 103.16 664.116 102.92 663.196 102.92C660.796 102.92 659.176 104.18 658.336 106.7H666.316Z"/>
<path d="M701.668 82.34L693.808 126.74H680.488L688.348 82.34H701.668Z"/>
<path d="M718.304 97.52C719.424 95.96 720.844 94.74 722.564 93.86C724.324 92.94 726.304 92.48 728.504 92.48C731.904 92.48 734.644 93.62 736.724 95.9C738.804 98.18 739.844 101.34 739.844 105.38C739.844 106.9 739.704 108.38 739.424 109.82C738.784 113.38 737.624 116.48 735.944 119.12C734.264 121.72 732.244 123.72 729.884 125.12C727.524 126.48 725.024 127.16 722.384 127.16C720.184 127.16 718.364 126.72 716.924 125.84C715.524 124.92 714.544 123.68 713.984 122.12L710.324 142.94H697.004L705.824 92.9H719.144L718.304 97.52ZM725.924 109.82C726.004 109.46 726.044 108.98 726.044 108.38C726.044 107.02 725.684 105.98 724.964 105.26C724.244 104.5 723.264 104.12 722.024 104.12C720.584 104.12 719.304 104.62 718.184 105.62C717.104 106.62 716.404 108.02 716.084 109.82C716.004 110.18 715.964 110.66 715.964 111.26C715.964 112.62 716.324 113.68 717.044 114.44C717.764 115.16 718.744 115.52 719.984 115.52C721.424 115.52 722.684 115.02 723.764 114.02C724.884 113.02 725.604 111.62 725.924 109.82Z"/>
<path d="M766.525 81.44L759.985 109.88H748.585L752.005 81.44H766.525ZM751.225 127.22C749.145 127.22 747.505 126.72 746.305 125.72C745.146 124.72 744.565 123.42 744.565 121.82C744.565 120.42 744.945 119.12 745.705 117.92C746.505 116.72 747.586 115.78 748.945 115.1C750.346 114.38 751.885 114.02 753.565 114.02C755.605 114.02 757.206 114.54 758.365 115.58C759.525 116.58 760.105 117.88 760.105 119.48C760.105 120.88 759.725 122.18 758.965 123.38C758.205 124.54 757.145 125.48 755.785 126.2C754.425 126.88 752.905 127.22 751.225 127.22Z"/>
</mask>
<path d="M33.7648 44.32H19.6048L16.3648 50.74H2.38477L25.4248 8.26H40.7848L48.7648 50.74H34.7248L33.7648 44.32ZM32.3248 34.3L30.5848 22.48L24.6448 34.3H32.3248Z" fill="#DFAC4A"/>
<path d="M70.031 23.14C71.751 21.18 73.671 19.62 75.791 18.46C77.951 17.26 80.091 16.66 82.211 16.66L79.751 30.88H75.971C73.451 30.88 71.511 31.32 70.151 32.2C68.831 33.08 67.971 34.64 67.571 36.88L65.111 50.74H51.791L57.791 16.9H71.111L70.031 23.14Z" fill="#DFAC4A"/>
<path d="M101.339 16.48C105.819 16.48 109.379 17.68 112.019 20.08C114.659 22.44 115.979 25.68 115.979 29.8C115.979 30.96 115.859 32.2 115.619 33.52C115.339 34.84 115.119 35.72 114.959 36.16H93.5988C93.5588 36.4 93.5388 36.74 93.5388 37.18C93.5388 39.42 94.4988 40.54 96.4188 40.54C97.8988 40.54 99.0588 39.88 99.8988 38.56H113.999C113.119 40.96 111.739 43.12 109.859 45.04C107.979 46.92 105.759 48.42 103.199 49.54C100.679 50.62 98.0188 51.16 95.2188 51.16C90.7388 51.16 87.1788 49.98 84.5388 47.62C81.9388 45.22 80.6388 41.9 80.6388 37.66C80.6388 36.42 80.7588 35.14 80.9988 33.82C81.6388 30.3 82.9188 27.24 84.8388 24.64C86.7588 22 89.1388 19.98 91.9788 18.58C94.8588 17.18 97.9788 16.48 101.339 16.48ZM102.599 30.7C102.639 30.5 102.659 30.2 102.659 29.8C102.659 28.84 102.359 28.12 101.759 27.64C101.159 27.16 100.399 26.92 99.4788 26.92C97.0788 26.92 95.4588 28.18 94.6188 30.7H102.599Z" fill="#DFAC4A"/>
<path d="M175.267 8.26L154.807 37.84L152.527 50.74H139.207L141.487 37.84L131.467 8.26H146.707L150.847 23.32L160.267 8.26H175.267Z" fill="#DFAC4A"/>
<path d="M186.815 51.16C183.815 51.16 181.175 50.58 178.895 49.42C176.615 48.26 174.835 46.62 173.555 44.5C172.275 42.34 171.635 39.84 171.635 37C171.635 33.08 172.555 29.56 174.395 26.44C176.275 23.32 178.835 20.88 182.075 19.12C185.315 17.36 188.935 16.48 192.935 16.48C195.935 16.48 198.575 17.08 200.855 18.28C203.135 19.44 204.915 21.1 206.195 23.26C207.475 25.38 208.115 27.86 208.115 30.7C208.115 34.62 207.195 38.14 205.355 41.26C203.515 44.38 200.975 46.82 197.735 48.58C194.495 50.3 190.855 51.16 186.815 51.16ZM188.855 39.64C190.575 39.64 191.935 38.86 192.935 37.3C193.935 35.74 194.435 34 194.435 32.08C194.435 30.72 194.095 29.7 193.415 29.02C192.775 28.34 191.935 28 190.895 28C189.175 28 187.815 28.78 186.815 30.34C185.815 31.9 185.315 33.64 185.315 35.56C185.315 36.92 185.635 37.94 186.275 38.62C186.915 39.3 187.775 39.64 188.855 39.64Z" fill="#DFAC4A"/>
<path d="M250.759 16.9L244.759 50.74H231.439L232.339 45.64C231.019 47.24 229.399 48.54 227.479 49.54C225.559 50.5 223.419 50.98 221.059 50.98C217.779 50.98 215.259 50.04 213.499 48.16C211.739 46.24 210.859 43.62 210.859 40.3C210.859 39.1 210.979 37.84 211.219 36.52L214.699 16.9H227.959L224.779 34.84C224.699 35.48 224.659 35.92 224.659 36.16C224.659 37.4 224.999 38.36 225.679 39.04C226.399 39.72 227.379 40.06 228.619 40.06C230.059 40.06 231.279 39.6 232.279 38.68C233.279 37.76 233.939 36.5 234.259 34.9L237.439 16.9H250.759Z" fill="#DFAC4A"/>
<path d="M298.471 8.26L296.611 18.82H279.931L278.911 24.7H290.911L289.111 34.72H277.111L274.291 50.74H260.971L268.471 8.26H298.471Z" fill="#DFAC4A"/>
<path d="M308.682 14.2C306.602 14.2 304.962 13.7 303.762 12.7C302.602 11.7 302.022 10.4 302.022 8.8C302.022 7.4 302.402 6.1 303.162 4.9C303.922 3.7 304.982 2.76 306.342 2.08C307.742 1.36 309.282 1 310.962 1C313.002 1 314.602 1.52 315.762 2.56C316.962 3.56 317.562 4.88 317.562 6.52C317.562 7.92 317.182 9.2 316.422 10.36C315.662 11.52 314.602 12.46 313.242 13.18C311.882 13.86 310.362 14.2 308.682 14.2ZM314.802 16.9L308.802 50.74H295.482L301.482 16.9H314.802Z" fill="#DFAC4A"/>
<path d="M333.058 23.14C334.778 21.18 336.698 19.62 338.818 18.46C340.978 17.26 343.118 16.66 345.238 16.66L342.778 30.88H338.998C336.478 30.88 334.538 31.32 333.178 32.2C331.858 33.08 330.998 34.64 330.598 36.88L328.138 50.74H314.818L320.818 16.9H334.138L333.058 23.14Z" fill="#DFAC4A"/>
<path d="M364.366 16.48C368.846 16.48 372.406 17.68 375.046 20.08C377.686 22.44 379.006 25.68 379.006 29.8C379.006 30.96 378.886 32.2 378.646 33.52C378.366 34.84 378.146 35.72 377.986 36.16H356.626C356.586 36.4 356.566 36.74 356.566 37.18C356.566 39.42 357.526 40.54 359.446 40.54C360.926 40.54 362.086 39.88 362.926 38.56H377.026C376.146 40.96 374.766 43.12 372.886 45.04C371.006 46.92 368.786 48.42 366.226 49.54C363.706 50.62 361.046 51.16 358.246 51.16C353.766 51.16 350.206 49.98 347.566 47.62C344.966 45.22 343.666 41.9 343.666 37.66C343.666 36.42 343.786 35.14 344.026 33.82C344.666 30.3 345.946 27.24 347.866 24.64C349.786 22 352.166 19.98 355.006 18.58C357.886 17.18 361.006 16.48 364.366 16.48ZM365.626 30.7C365.666 30.5 365.686 30.2 365.686 29.8C365.686 28.84 365.386 28.12 364.786 27.64C364.186 27.16 363.426 26.92 362.506 26.92C360.106 26.92 358.486 28.18 357.646 30.7H365.626Z" fill="#DFAC4A"/>
<path d="M417.294 8.26C421.854 8.26 425.314 9.28 427.674 11.32C430.034 13.36 431.214 16.08 431.214 19.48C431.214 20.48 431.134 21.38 430.974 22.18C430.454 25.06 429.214 27.6 427.254 29.8C425.294 31.96 422.754 33.52 419.634 34.48L425.994 50.74H411.354L406.014 35.5L403.314 50.74H389.994L397.494 8.26H417.294ZM407.574 26.62H412.854C414.134 26.62 415.134 26.34 415.854 25.78C416.614 25.18 417.114 24.26 417.354 23.02C417.394 22.82 417.414 22.56 417.414 22.24C417.414 21.36 417.134 20.68 416.574 20.2C416.014 19.68 415.194 19.42 414.114 19.42H408.834L407.574 26.62Z" fill="#DFAC4A"/>
<path d="M451.729 16.48C456.209 16.48 459.769 17.68 462.409 20.08C465.049 22.44 466.369 25.68 466.369 29.8C466.369 30.96 466.249 32.2 466.009 33.52C465.729 34.84 465.509 35.72 465.349 36.16H443.989C443.949 36.4 443.929 36.74 443.929 37.18C443.929 39.42 444.889 40.54 446.809 40.54C448.289 40.54 449.449 39.88 450.289 38.56H464.389C463.509 40.96 462.129 43.12 460.249 45.04C458.369 46.92 456.149 48.42 453.589 49.54C451.069 50.62 448.409 51.16 445.609 51.16C441.129 51.16 437.569 49.98 434.929 47.62C432.329 45.22 431.029 41.9 431.029 37.66C431.029 36.42 431.149 35.14 431.389 33.82C432.029 30.3 433.309 27.24 435.229 24.64C437.149 22 439.529 19.98 442.369 18.58C445.249 17.18 448.369 16.48 451.729 16.48ZM452.989 30.7C453.029 30.5 453.049 30.2 453.049 29.8C453.049 28.84 452.749 28.12 452.149 27.64C451.549 27.16 450.789 26.92 449.869 26.92C447.469 26.92 445.849 28.18 445.009 30.7H452.989Z" fill="#DFAC4A"/>
<path d="M468.362 33.82C469.002 30.26 470.162 27.18 471.842 24.58C473.522 21.94 475.542 19.94 477.902 18.58C480.262 17.18 482.762 16.48 485.402 16.48C487.602 16.48 489.422 16.94 490.862 17.86C492.302 18.74 493.302 19.96 493.862 21.52L494.702 16.9H507.962L501.962 50.74H488.702L489.542 46.12C488.422 47.68 486.982 48.92 485.222 49.84C483.462 50.72 481.482 51.16 479.282 51.16C475.882 51.16 473.142 50.02 471.062 47.74C468.982 45.46 467.942 42.3 467.942 38.26C467.942 36.74 468.082 35.26 468.362 33.82ZM491.702 33.82C491.782 33.46 491.822 32.98 491.822 32.38C491.822 31.02 491.462 29.98 490.742 29.26C490.022 28.5 489.042 28.12 487.802 28.12C486.362 28.12 485.082 28.62 483.962 29.62C482.882 30.62 482.182 32.02 481.862 33.82C481.782 34.18 481.742 34.66 481.742 35.26C481.742 36.62 482.102 37.68 482.822 38.44C483.542 39.16 484.522 39.52 485.762 39.52C487.202 39.52 488.462 39.02 489.542 38.02C490.662 37.02 491.382 35.62 491.702 33.82Z" fill="#DFAC4A"/>
<path d="M509.143 33.82C509.783 30.26 510.943 27.18 512.623 24.58C514.303 21.94 516.323 19.94 518.683 18.58C521.043 17.18 523.543 16.48 526.183 16.48C528.383 16.48 530.183 16.94 531.583 17.86C533.023 18.74 534.023 19.96 534.583 21.52L537.283 6.34H550.603L542.743 50.74H529.423L530.263 46.12C529.143 47.68 527.703 48.92 525.943 49.84C524.223 50.72 522.263 51.16 520.063 51.16C516.663 51.16 513.923 50.02 511.843 47.74C509.763 45.46 508.723 42.3 508.723 38.26C508.723 36.74 508.863 35.26 509.143 33.82ZM532.483 33.82C532.563 33.46 532.603 32.98 532.603 32.38C532.603 31.02 532.243 29.98 531.523 29.26C530.803 28.5 529.823 28.12 528.583 28.12C527.143 28.12 525.863 28.62 524.743 29.62C523.663 30.62 522.963 32.02 522.643 33.82C522.563 34.18 522.523 34.66 522.523 35.26C522.523 36.62 522.883 37.68 523.603 38.44C524.323 39.16 525.303 39.52 526.543 39.52C527.983 39.52 529.243 39.02 530.323 38.02C531.443 37.02 532.163 35.62 532.483 33.82Z" fill="#DFAC4A"/>
<path d="M565.945 16.9L569.245 34.06L578.245 16.9H592.945L562.465 66.94H547.885L559.525 49.06L551.125 16.9H565.945Z" fill="#DFAC4A"/>
<path d="M610.87 4.36C614.75 4.36 617.83 5.24 620.11 7C622.39 8.72 623.53 11.24 623.53 14.56C623.53 15.56 623.45 16.52 623.29 17.44C622.65 20.96 620.95 23.8 618.19 25.96C615.47 28.12 612.17 29.24 608.29 29.32L607.21 33.58H595.45L597.31 20.86H602.35C604.79 20.86 606.67 20.6 607.99 20.08C609.35 19.52 610.11 18.62 610.27 17.38L610.33 16.9C610.33 16.34 610.17 15.92 609.85 15.64C609.53 15.32 609.11 15.16 608.59 15.16C607.79 15.16 607.15 15.42 606.67 15.94C606.19 16.42 605.89 17.06 605.77 17.86H593.23C593.55 15.38 594.43 13.12 595.87 11.08C597.35 9.04 599.35 7.42 601.87 6.22C604.43 4.98 607.43 4.36 610.87 4.36ZM598.39 51.22C596.31 51.22 594.67 50.72 593.47 49.72C592.31 48.72 591.73 47.42 591.73 45.82C591.73 44.42 592.11 43.12 592.87 41.92C593.67 40.72 594.75 39.78 596.11 39.1C597.51 38.38 599.05 38.02 600.73 38.02C602.77 38.02 604.37 38.54 605.53 39.58C606.69 40.58 607.27 41.88 607.27 43.48C607.27 44.88 606.89 46.18 606.13 47.38C605.37 48.54 604.31 49.48 602.95 50.2C601.59 50.88 600.07 51.22 598.39 51.22Z" fill="#DFAC4A"/>
<path d="M415.79 84.26L398.57 126.74H382.01L381.35 102.62L372.17 126.74H355.61L353.39 84.26H367.73L366.89 111.02L377.33 84.26H391.85L392.87 111.02L401.45 84.26H415.79Z" fill="#E61E24"/>
<path d="M434.606 92.48C439.086 92.48 442.646 93.68 445.286 96.08C447.926 98.44 449.246 101.68 449.246 105.8C449.246 106.96 449.126 108.2 448.886 109.52C448.606 110.84 448.386 111.72 448.226 112.16H426.866C426.826 112.4 426.806 112.74 426.806 113.18C426.806 115.42 427.766 116.54 429.686 116.54C431.166 116.54 432.326 115.88 433.166 114.56H447.266C446.386 116.96 445.006 119.12 443.126 121.04C441.246 122.92 439.026 124.42 436.466 125.54C433.946 126.62 431.286 127.16 428.486 127.16C424.006 127.16 420.446 125.98 417.806 123.62C415.206 121.22 413.906 117.9 413.906 113.66C413.906 112.42 414.026 111.14 414.266 109.82C414.906 106.3 416.186 103.24 418.106 100.64C420.026 98 422.406 95.98 425.246 94.58C428.126 93.18 431.246 92.48 434.606 92.48ZM435.866 106.7C435.906 106.5 435.926 106.2 435.926 105.8C435.926 104.84 435.626 104.12 435.026 103.64C434.426 103.16 433.666 102.92 432.746 102.92C430.346 102.92 428.726 104.18 427.886 106.7H435.866Z" fill="#E61E24"/>
<path d="M462.814 105.44C463.534 101.24 465.034 97.5 467.314 94.22C469.594 90.94 472.474 88.4 475.954 86.6C479.434 84.76 483.314 83.84 487.594 83.84C491.274 83.84 494.434 84.54 497.074 85.94C499.754 87.3 501.794 89.24 503.194 91.76C504.594 94.28 505.274 97.22 505.234 100.58H491.194C490.794 99.18 490.074 98.1 489.034 97.34C487.994 96.54 486.714 96.14 485.194 96.14C482.954 96.14 481.034 96.98 479.434 98.66C477.834 100.34 476.794 102.6 476.314 105.44C476.154 106.24 476.074 107.1 476.074 108.02C476.074 110.1 476.574 111.74 477.574 112.94C478.614 114.14 480.074 114.74 481.954 114.74C483.474 114.74 484.894 114.36 486.214 113.6C487.534 112.8 488.634 111.7 489.514 110.3H503.554C502.354 113.66 500.614 116.6 498.334 119.12C496.054 121.64 493.334 123.6 490.174 125C487.054 126.36 483.654 127.04 479.974 127.04C476.254 127.04 473.074 126.36 470.434 125C467.794 123.6 465.794 121.64 464.434 119.12C463.074 116.56 462.394 113.6 462.394 110.24C462.394 108.6 462.534 107 462.814 105.44Z" fill="#E61E24"/>
<path d="M506.61 109.82C507.25 106.26 508.41 103.18 510.09 100.58C511.77 97.94 513.79 95.94 516.15 94.58C518.51 93.18 521.01 92.48 523.65 92.48C525.85 92.48 527.67 92.94 529.11 93.86C530.55 94.74 531.55 95.96 532.11 97.52L532.95 92.9H546.21L540.21 126.74H526.95L527.79 122.12C526.67 123.68 525.23 124.92 523.47 125.84C521.71 126.72 519.73 127.16 517.53 127.16C514.13 127.16 511.39 126.02 509.31 123.74C507.23 121.46 506.19 118.3 506.19 114.26C506.19 112.74 506.33 111.26 506.61 109.82ZM529.95 109.82C530.03 109.46 530.07 108.98 530.07 108.38C530.07 107.02 529.71 105.98 528.99 105.26C528.27 104.5 527.29 104.12 526.05 104.12C524.61 104.12 523.33 104.62 522.21 105.62C521.13 106.62 520.43 108.02 520.11 109.82C520.03 110.18 519.99 110.66 519.99 111.26C519.99 112.62 520.35 113.68 521.07 114.44C521.79 115.16 522.77 115.52 524.01 115.52C525.45 115.52 526.71 115.02 527.79 114.02C528.91 113.02 529.63 111.62 529.95 109.82Z" fill="#E61E24"/>
<path d="M575.891 92.66C579.171 92.66 581.691 93.62 583.451 95.54C585.211 97.42 586.091 100.02 586.091 103.34C586.091 104.54 585.971 105.8 585.731 107.12L582.251 126.74H568.991L572.171 108.8C572.251 108.16 572.291 107.72 572.291 107.48C572.291 106.24 571.931 105.28 571.211 104.6C570.531 103.92 569.571 103.58 568.331 103.58C566.891 103.58 565.671 104.04 564.671 104.96C563.671 105.88 563.011 107.14 562.691 108.74L559.511 126.74H546.191L552.191 92.9H565.511L564.611 98C565.931 96.4 567.551 95.12 569.471 94.16C571.391 93.16 573.531 92.66 575.891 92.66Z" fill="#E61E24"/>
<path d="M645.023 84.26L637.523 126.74H624.203L627.143 110.18H614.483L611.543 126.74H598.223L605.723 84.26H619.043L616.343 99.56H629.003L631.703 84.26H645.023Z" fill="#E61E24"/>
<path d="M665.056 92.48C669.536 92.48 673.096 93.68 675.736 96.08C678.376 98.44 679.696 101.68 679.696 105.8C679.696 106.96 679.576 108.2 679.336 109.52C679.056 110.84 678.836 111.72 678.676 112.16H657.316C657.276 112.4 657.256 112.74 657.256 113.18C657.256 115.42 658.216 116.54 660.136 116.54C661.616 116.54 662.776 115.88 663.616 114.56H677.716C676.836 116.96 675.456 119.12 673.576 121.04C671.696 122.92 669.476 124.42 666.916 125.54C664.396 126.62 661.736 127.16 658.936 127.16C654.456 127.16 650.896 125.98 648.256 123.62C645.656 121.22 644.356 117.9 644.356 113.66C644.356 112.42 644.476 111.14 644.716 109.82C645.356 106.3 646.636 103.24 648.556 100.64C650.476 98 652.856 95.98 655.696 94.58C658.576 93.18 661.696 92.48 665.056 92.48ZM666.316 106.7C666.356 106.5 666.376 106.2 666.376 105.8C666.376 104.84 666.076 104.12 665.476 103.64C664.876 103.16 664.116 102.92 663.196 102.92C660.796 102.92 659.176 104.18 658.336 106.7H666.316Z" fill="#E61E24"/>
<path d="M701.668 82.34L693.808 126.74H680.488L688.348 82.34H701.668Z" fill="#E61E24"/>
<path d="M718.304 97.52C719.424 95.96 720.844 94.74 722.564 93.86C724.324 92.94 726.304 92.48 728.504 92.48C731.904 92.48 734.644 93.62 736.724 95.9C738.804 98.18 739.844 101.34 739.844 105.38C739.844 106.9 739.704 108.38 739.424 109.82C738.784 113.38 737.624 116.48 735.944 119.12C734.264 121.72 732.244 123.72 729.884 125.12C727.524 126.48 725.024 127.16 722.384 127.16C720.184 127.16 718.364 126.72 716.924 125.84C715.524 124.92 714.544 123.68 713.984 122.12L710.324 142.94H697.004L705.824 92.9H719.144L718.304 97.52ZM725.924 109.82C726.004 109.46 726.044 108.98 726.044 108.38C726.044 107.02 725.684 105.98 724.964 105.26C724.244 104.5 723.264 104.12 722.024 104.12C720.584 104.12 719.304 104.62 718.184 105.62C717.104 106.62 716.404 108.02 716.084 109.82C716.004 110.18 715.964 110.66 715.964 111.26C715.964 112.62 716.324 113.68 717.044 114.44C717.764 115.16 718.744 115.52 719.984 115.52C721.424 115.52 722.684 115.02 723.764 114.02C724.884 113.02 725.604 111.62 725.924 109.82Z" fill="#E61E24"/>
<path d="M766.525 81.44L759.985 109.88H748.585L752.005 81.44H766.525ZM751.225 127.22C749.145 127.22 747.505 126.72 746.305 125.72C745.146 124.72 744.565 123.42 744.565 121.82C744.565 120.42 744.945 119.12 745.705 117.92C746.505 116.72 747.586 115.78 748.945 115.1C750.346 114.38 751.885 114.02 753.565 114.02C755.605 114.02 757.206 114.54 758.365 115.58C759.525 116.58 760.105 117.88 760.105 119.48C760.105 120.88 759.725 122.18 758.965 123.38C758.205 124.54 757.145 125.48 755.785 126.2C754.425 126.88 752.905 127.22 751.225 127.22Z" fill="#E61E24"/>
<path d="M33.7648 44.32H19.6048L16.3648 50.74H2.38477L25.4248 8.26H40.7848L48.7648 50.74H34.7248L33.7648 44.32ZM32.3248 34.3L30.5848 22.48L24.6448 34.3H32.3248Z" stroke="black" stroke-opacity="0.5" stroke-width="2" mask="url(#path-1-outside-1_734_3)"/>
<path d="M70.031 23.14C71.751 21.18 73.671 19.62 75.791 18.46C77.951 17.26 80.091 16.66 82.211 16.66L79.751 30.88H75.971C73.451 30.88 71.511 31.32 70.151 32.2C68.831 33.08 67.971 34.64 67.571 36.88L65.111 50.74H51.791L57.791 16.9H71.111L70.031 23.14Z" stroke="black" stroke-opacity="0.5" stroke-width="2" mask="url(#path-1-outside-1_734_3)"/>
<path d="M101.339 16.48C105.819 16.48 109.379 17.68 112.019 20.08C114.659 22.44 115.979 25.68 115.979 29.8C115.979 30.96 115.859 32.2 115.619 33.52C115.339 34.84 115.119 35.72 114.959 36.16H93.5988C93.5588 36.4 93.5388 36.74 93.5388 37.18C93.5388 39.42 94.4988 40.54 96.4188 40.54C97.8988 40.54 99.0588 39.88 99.8988 38.56H113.999C113.119 40.96 111.739 43.12 109.859 45.04C107.979 46.92 105.759 48.42 103.199 49.54C100.679 50.62 98.0188 51.16 95.2188 51.16C90.7388 51.16 87.1788 49.98 84.5388 47.62C81.9388 45.22 80.6388 41.9 80.6388 37.66C80.6388 36.42 80.7588 35.14 80.9988 33.82C81.6388 30.3 82.9188 27.24 84.8388 24.64C86.7588 22 89.1388 19.98 91.9788 18.58C94.8588 17.18 97.9788 16.48 101.339 16.48ZM102.599 30.7C102.639 30.5 102.659 30.2 102.659 29.8C102.659 28.84 102.359 28.12 101.759 27.64C101.159 27.16 100.399 26.92 99.4788 26.92C97.0788 26.92 95.4588 28.18 94.6188 30.7H102.599Z" stroke="black" stroke-opacity="0.5" stroke-width="2" mask="url(#path-1-outside-1_734_3)"/>
<path d="M175.267 8.26L154.807 37.84L152.527 50.74H139.207L141.487 37.84L131.467 8.26H146.707L150.847 23.32L160.267 8.26H175.267Z" stroke="black" stroke-opacity="0.5" stroke-width="2" mask="url(#path-1-outside-1_734_3)"/>
<path d="M186.815 51.16C183.815 51.16 181.175 50.58 178.895 49.42C176.615 48.26 174.835 46.62 173.555 44.5C172.275 42.34 171.635 39.84 171.635 37C171.635 33.08 172.555 29.56 174.395 26.44C176.275 23.32 178.835 20.88 182.075 19.12C185.315 17.36 188.935 16.48 192.935 16.48C195.935 16.48 198.575 17.08 200.855 18.28C203.135 19.44 204.915 21.1 206.195 23.26C207.475 25.38 208.115 27.86 208.115 30.7C208.115 34.62 207.195 38.14 205.355 41.26C203.515 44.38 200.975 46.82 197.735 48.58C194.495 50.3 190.855 51.16 186.815 51.16ZM188.855 39.64C190.575 39.64 191.935 38.86 192.935 37.3C193.935 35.74 194.435 34 194.435 32.08C194.435 30.72 194.095 29.7 193.415 29.02C192.775 28.34 191.935 28 190.895 28C189.175 28 187.815 28.78 186.815 30.34C185.815 31.9 185.315 33.64 185.315 35.56C185.315 36.92 185.635 37.94 186.275 38.62C186.915 39.3 187.775 39.64 188.855 39.64Z" stroke="black" stroke-opacity="0.5" stroke-width="2" mask="url(#path-1-outside-1_734_3)"/>
<path d="M250.759 16.9L244.759 50.74H231.439L232.339 45.64C231.019 47.24 229.399 48.54 227.479 49.54C225.559 50.5 223.419 50.98 221.059 50.98C217.779 50.98 215.259 50.04 213.499 48.16C211.739 46.24 210.859 43.62 210.859 40.3C210.859 39.1 210.979 37.84 211.219 36.52L214.699 16.9H227.959L224.779 34.84C224.699 35.48 224.659 35.92 224.659 36.16C224.659 37.4 224.999 38.36 225.679 39.04C226.399 39.72 227.379 40.06 228.619 40.06C230.059 40.06 231.279 39.6 232.279 38.68C233.279 37.76 233.939 36.5 234.259 34.9L237.439 16.9H250.759Z" stroke="black" stroke-opacity="0.5" stroke-width="2" mask="url(#path-1-outside-1_734_3)"/>
<path d="M298.471 8.26L296.611 18.82H279.931L278.911 24.7H290.911L289.111 34.72H277.111L274.291 50.74H260.971L268.471 8.26H298.471Z" stroke="black" stroke-opacity="0.5" stroke-width="2" mask="url(#path-1-outside-1_734_3)"/>
<path d="M308.682 14.2C306.602 14.2 304.962 13.7 303.762 12.7C302.602 11.7 302.022 10.4 302.022 8.8C302.022 7.4 302.402 6.1 303.162 4.9C303.922 3.7 304.982 2.76 306.342 2.08C307.742 1.36 309.282 1 310.962 1C313.002 1 314.602 1.52 315.762 2.56C316.962 3.56 317.562 4.88 317.562 6.52C317.562 7.92 317.182 9.2 316.422 10.36C315.662 11.52 314.602 12.46 313.242 13.18C311.882 13.86 310.362 14.2 308.682 14.2ZM314.802 16.9L308.802 50.74H295.482L301.482 16.9H314.802Z" stroke="black" stroke-opacity="0.5" stroke-width="2" mask="url(#path-1-outside-1_734_3)"/>
<path d="M333.058 23.14C334.778 21.18 336.698 19.62 338.818 18.46C340.978 17.26 343.118 16.66 345.238 16.66L342.778 30.88H338.998C336.478 30.88 334.538 31.32 333.178 32.2C331.858 33.08 330.998 34.64 330.598 36.88L328.138 50.74H314.818L320.818 16.9H334.138L333.058 23.14Z" stroke="black" stroke-opacity="0.5" stroke-width="2" mask="url(#path-1-outside-1_734_3)"/>
<path d="M364.366 16.48C368.846 16.48 372.406 17.68 375.046 20.08C377.686 22.44 379.006 25.68 379.006 29.8C379.006 30.96 378.886 32.2 378.646 33.52C378.366 34.84 378.146 35.72 377.986 36.16H356.626C356.586 36.4 356.566 36.74 356.566 37.18C356.566 39.42 357.526 40.54 359.446 40.54C360.926 40.54 362.086 39.88 362.926 38.56H377.026C376.146 40.96 374.766 43.12 372.886 45.04C371.006 46.92 368.786 48.42 366.226 49.54C363.706 50.62 361.046 51.16 358.246 51.16C353.766 51.16 350.206 49.98 347.566 47.62C344.966 45.22 343.666 41.9 343.666 37.66C343.666 36.42 343.786 35.14 344.026 33.82C344.666 30.3 345.946 27.24 347.866 24.64C349.786 22 352.166 19.98 355.006 18.58C357.886 17.18 361.006 16.48 364.366 16.48ZM365.626 30.7C365.666 30.5 365.686 30.2 365.686 29.8C365.686 28.84 365.386 28.12 364.786 27.64C364.186 27.16 363.426 26.92 362.506 26.92C360.106 26.92 358.486 28.18 357.646 30.7H365.626Z" stroke="black" stroke-opacity="0.5" stroke-width="2" mask="url(#path-1-outside-1_734_3)"/>
<path d="M417.294 8.26C421.854 8.26 425.314 9.28 427.674 11.32C430.034 13.36 431.214 16.08 431.214 19.48C431.214 20.48 431.134 21.38 430.974 22.18C430.454 25.06 429.214 27.6 427.254 29.8C425.294 31.96 422.754 33.52 419.634 34.48L425.994 50.74H411.354L406.014 35.5L403.314 50.74H389.994L397.494 8.26H417.294ZM407.574 26.62H412.854C414.134 26.62 415.134 26.34 415.854 25.78C416.614 25.18 417.114 24.26 417.354 23.02C417.394 22.82 417.414 22.56 417.414 22.24C417.414 21.36 417.134 20.68 416.574 20.2C416.014 19.68 415.194 19.42 414.114 19.42H408.834L407.574 26.62Z" stroke="black" stroke-opacity="0.5" stroke-width="2" mask="url(#path-1-outside-1_734_3)"/>
<path d="M451.729 16.48C456.209 16.48 459.769 17.68 462.409 20.08C465.049 22.44 466.369 25.68 466.369 29.8C466.369 30.96 466.249 32.2 466.009 33.52C465.729 34.84 465.509 35.72 465.349 36.16H443.989C443.949 36.4 443.929 36.74 443.929 37.18C443.929 39.42 444.889 40.54 446.809 40.54C448.289 40.54 449.449 39.88 450.289 38.56H464.389C463.509 40.96 462.129 43.12 460.249 45.04C458.369 46.92 456.149 48.42 453.589 49.54C451.069 50.62 448.409 51.16 445.609 51.16C441.129 51.16 437.569 49.98 434.929 47.62C432.329 45.22 431.029 41.9 431.029 37.66C431.029 36.42 431.149 35.14 431.389 33.82C432.029 30.3 433.309 27.24 435.229 24.64C437.149 22 439.529 19.98 442.369 18.58C445.249 17.18 448.369 16.48 451.729 16.48ZM452.989 30.7C453.029 30.5 453.049 30.2 453.049 29.8C453.049 28.84 452.749 28.12 452.149 27.64C451.549 27.16 450.789 26.92 449.869 26.92C447.469 26.92 445.849 28.18 445.009 30.7H452.989Z" stroke="black" stroke-opacity="0.5" stroke-width="2" mask="url(#path-1-outside-1_734_3)"/>
<path d="M468.362 33.82C469.002 30.26 470.162 27.18 471.842 24.58C473.522 21.94 475.542 19.94 477.902 18.58C480.262 17.18 482.762 16.48 485.402 16.48C487.602 16.48 489.422 16.94 490.862 17.86C492.302 18.74 493.302 19.96 493.862 21.52L494.702 16.9H507.962L501.962 50.74H488.702L489.542 46.12C488.422 47.68 486.982 48.92 485.222 49.84C483.462 50.72 481.482 51.16 479.282 51.16C475.882 51.16 473.142 50.02 471.062 47.74C468.982 45.46 467.942 42.3 467.942 38.26C467.942 36.74 468.082 35.26 468.362 33.82ZM491.702 33.82C491.782 33.46 491.822 32.98 491.822 32.38C491.822 31.02 491.462 29.98 490.742 29.26C490.022 28.5 489.042 28.12 487.802 28.12C486.362 28.12 485.082 28.62 483.962 29.62C482.882 30.62 482.182 32.02 481.862 33.82C481.782 34.18 481.742 34.66 481.742 35.26C481.742 36.62 482.102 37.68 482.822 38.44C483.542 39.16 484.522 39.52 485.762 39.52C487.202 39.52 488.462 39.02 489.542 38.02C490.662 37.02 491.382 35.62 491.702 33.82Z" stroke="black" stroke-opacity="0.5" stroke-width="2" mask="url(#path-1-outside-1_734_3)"/>
<path d="M509.143 33.82C509.783 30.26 510.943 27.18 512.623 24.58C514.303 21.94 516.323 19.94 518.683 18.58C521.043 17.18 523.543 16.48 526.183 16.48C528.383 16.48 530.183 16.94 531.583 17.86C533.023 18.74 534.023 19.96 534.583 21.52L537.283 6.34H550.603L542.743 50.74H529.423L530.263 46.12C529.143 47.68 527.703 48.92 525.943 49.84C524.223 50.72 522.263 51.16 520.063 51.16C516.663 51.16 513.923 50.02 511.843 47.74C509.763 45.46 508.723 42.3 508.723 38.26C508.723 36.74 508.863 35.26 509.143 33.82ZM532.483 33.82C532.563 33.46 532.603 32.98 532.603 32.38C532.603 31.02 532.243 29.98 531.523 29.26C530.803 28.5 529.823 28.12 528.583 28.12C527.143 28.12 525.863 28.62 524.743 29.62C523.663 30.62 522.963 32.02 522.643 33.82C522.563 34.18 522.523 34.66 522.523 35.26C522.523 36.62 522.883 37.68 523.603 38.44C524.323 39.16 525.303 39.52 526.543 39.52C527.983 39.52 529.243 39.02 530.323 38.02C531.443 37.02 532.163 35.62 532.483 33.82Z" stroke="black" stroke-opacity="0.5" stroke-width="2" mask="url(#path-1-outside-1_734_3)"/>
<path d="M565.945 16.9L569.245 34.06L578.245 16.9H592.945L562.465 66.94H547.885L559.525 49.06L551.125 16.9H565.945Z" stroke="black" stroke-opacity="0.5" stroke-width="2" mask="url(#path-1-outside-1_734_3)"/>
<path d="M610.87 4.36C614.75 4.36 617.83 5.24 620.11 7C622.39 8.72 623.53 11.24 623.53 14.56C623.53 15.56 623.45 16.52 623.29 17.44C622.65 20.96 620.95 23.8 618.19 25.96C615.47 28.12 612.17 29.24 608.29 29.32L607.21 33.58H595.45L597.31 20.86H602.35C604.79 20.86 606.67 20.6 607.99 20.08C609.35 19.52 610.11 18.62 610.27 17.38L610.33 16.9C610.33 16.34 610.17 15.92 609.85 15.64C609.53 15.32 609.11 15.16 608.59 15.16C607.79 15.16 607.15 15.42 606.67 15.94C606.19 16.42 605.89 17.06 605.77 17.86H593.23C593.55 15.38 594.43 13.12 595.87 11.08C597.35 9.04 599.35 7.42 601.87 6.22C604.43 4.98 607.43 4.36 610.87 4.36ZM598.39 51.22C596.31 51.22 594.67 50.72 593.47 49.72C592.31 48.72 591.73 47.42 591.73 45.82C591.73 44.42 592.11 43.12 592.87 41.92C593.67 40.72 594.75 39.78 596.11 39.1C597.51 38.38 599.05 38.02 600.73 38.02C602.77 38.02 604.37 38.54 605.53 39.58C606.69 40.58 607.27 41.88 607.27 43.48C607.27 44.88 606.89 46.18 606.13 47.38C605.37 48.54 604.31 49.48 602.95 50.2C601.59 50.88 600.07 51.22 598.39 51.22Z" stroke="black" stroke-opacity="0.5" stroke-width="2" mask="url(#path-1-outside-1_734_3)"/>
<path d="M415.79 84.26L398.57 126.74H382.01L381.35 102.62L372.17 126.74H355.61L353.39 84.26H367.73L366.89 111.02L377.33 84.26H391.85L392.87 111.02L401.45 84.26H415.79Z" stroke="black" stroke-opacity="0.5" stroke-width="2" mask="url(#path-1-outside-1_734_3)"/>
<path d="M434.606 92.48C439.086 92.48 442.646 93.68 445.286 96.08C447.926 98.44 449.246 101.68 449.246 105.8C449.246 106.96 449.126 108.2 448.886 109.52C448.606 110.84 448.386 111.72 448.226 112.16H426.866C426.826 112.4 426.806 112.74 426.806 113.18C426.806 115.42 427.766 116.54 429.686 116.54C431.166 116.54 432.326 115.88 433.166 114.56H447.266C446.386 116.96 445.006 119.12 443.126 121.04C441.246 122.92 439.026 124.42 436.466 125.54C433.946 126.62 431.286 127.16 428.486 127.16C424.006 127.16 420.446 125.98 417.806 123.62C415.206 121.22 413.906 117.9 413.906 113.66C413.906 112.42 414.026 111.14 414.266 109.82C414.906 106.3 416.186 103.24 418.106 100.64C420.026 98 422.406 95.98 425.246 94.58C428.126 93.18 431.246 92.48 434.606 92.48ZM435.866 106.7C435.906 106.5 435.926 106.2 435.926 105.8C435.926 104.84 435.626 104.12 435.026 103.64C434.426 103.16 433.666 102.92 432.746 102.92C430.346 102.92 428.726 104.18 427.886 106.7H435.866Z" stroke="black" stroke-opacity="0.5" stroke-width="2" mask="url(#path-1-outside-1_734_3)"/>
<path d="M462.814 105.44C463.534 101.24 465.034 97.5 467.314 94.22C469.594 90.94 472.474 88.4 475.954 86.6C479.434 84.76 483.314 83.84 487.594 83.84C491.274 83.84 494.434 84.54 497.074 85.94C499.754 87.3 501.794 89.24 503.194 91.76C504.594 94.28 505.274 97.22 505.234 100.58H491.194C490.794 99.18 490.074 98.1 489.034 97.34C487.994 96.54 486.714 96.14 485.194 96.14C482.954 96.14 481.034 96.98 479.434 98.66C477.834 100.34 476.794 102.6 476.314 105.44C476.154 106.24 476.074 107.1 476.074 108.02C476.074 110.1 476.574 111.74 477.574 112.94C478.614 114.14 480.074 114.74 481.954 114.74C483.474 114.74 484.894 114.36 486.214 113.6C487.534 112.8 488.634 111.7 489.514 110.3H503.554C502.354 113.66 500.614 116.6 498.334 119.12C496.054 121.64 493.334 123.6 490.174 125C487.054 126.36 483.654 127.04 479.974 127.04C476.254 127.04 473.074 126.36 470.434 125C467.794 123.6 465.794 121.64 464.434 119.12C463.074 116.56 462.394 113.6 462.394 110.24C462.394 108.6 462.534 107 462.814 105.44Z" stroke="black" stroke-opacity="0.5" stroke-width="2" mask="url(#path-1-outside-1_734_3)"/>
<path d="M506.61 109.82C507.25 106.26 508.41 103.18 510.09 100.58C511.77 97.94 513.79 95.94 516.15 94.58C518.51 93.18 521.01 92.48 523.65 92.48C525.85 92.48 527.67 92.94 529.11 93.86C530.55 94.74 531.55 95.96 532.11 97.52L532.95 92.9H546.21L540.21 126.74H526.95L527.79 122.12C526.67 123.68 525.23 124.92 523.47 125.84C521.71 126.72 519.73 127.16 517.53 127.16C514.13 127.16 511.39 126.02 509.31 123.74C507.23 121.46 506.19 118.3 506.19 114.26C506.19 112.74 506.33 111.26 506.61 109.82ZM529.95 109.82C530.03 109.46 530.07 108.98 530.07 108.38C530.07 107.02 529.71 105.98 528.99 105.26C528.27 104.5 527.29 104.12 526.05 104.12C524.61 104.12 523.33 104.62 522.21 105.62C521.13 106.62 520.43 108.02 520.11 109.82C520.03 110.18 519.99 110.66 519.99 111.26C519.99 112.62 520.35 113.68 521.07 114.44C521.79 115.16 522.77 115.52 524.01 115.52C525.45 115.52 526.71 115.02 527.79 114.02C528.91 113.02 529.63 111.62 529.95 109.82Z" stroke="black" stroke-opacity="0.5" stroke-width="2" mask="url(#path-1-outside-1_734_3)"/>
<path d="M575.891 92.66C579.171 92.66 581.691 93.62 583.451 95.54C585.211 97.42 586.091 100.02 586.091 103.34C586.091 104.54 585.971 105.8 585.731 107.12L582.251 126.74H568.991L572.171 108.8C572.251 108.16 572.291 107.72 572.291 107.48C572.291 106.24 571.931 105.28 571.211 104.6C570.531 103.92 569.571 103.58 568.331 103.58C566.891 103.58 565.671 104.04 564.671 104.96C563.671 105.88 563.011 107.14 562.691 108.74L559.511 126.74H546.191L552.191 92.9H565.511L564.611 98C565.931 96.4 567.551 95.12 569.471 94.16C571.391 93.16 573.531 92.66 575.891 92.66Z" stroke="black" stroke-opacity="0.5" stroke-width="2" mask="url(#path-1-outside-1_734_3)"/>
<path d="M645.023 84.26L637.523 126.74H624.203L627.143 110.18H614.483L611.543 126.74H598.223L605.723 84.26H619.043L616.343 99.56H629.003L631.703 84.26H645.023Z" stroke="black" stroke-opacity="0.5" stroke-width="2" mask="url(#path-1-outside-1_734_3)"/>
<path d="M665.056 92.48C669.536 92.48 673.096 93.68 675.736 96.08C678.376 98.44 679.696 101.68 679.696 105.8C679.696 106.96 679.576 108.2 679.336 109.52C679.056 110.84 678.836 111.72 678.676 112.16H657.316C657.276 112.4 657.256 112.74 657.256 113.18C657.256 115.42 658.216 116.54 660.136 116.54C661.616 116.54 662.776 115.88 663.616 114.56H677.716C676.836 116.96 675.456 119.12 673.576 121.04C671.696 122.92 669.476 124.42 666.916 125.54C664.396 126.62 661.736 127.16 658.936 127.16C654.456 127.16 650.896 125.98 648.256 123.62C645.656 121.22 644.356 117.9 644.356 113.66C644.356 112.42 644.476 111.14 644.716 109.82C645.356 106.3 646.636 103.24 648.556 100.64C650.476 98 652.856 95.98 655.696 94.58C658.576 93.18 661.696 92.48 665.056 92.48ZM666.316 106.7C666.356 106.5 666.376 106.2 666.376 105.8C666.376 104.84 666.076 104.12 665.476 103.64C664.876 103.16 664.116 102.92 663.196 102.92C660.796 102.92 659.176 104.18 658.336 106.7H666.316Z" stroke="black" stroke-opacity="0.5" stroke-width="2" mask="url(#path-1-outside-1_734_3)"/>
<path d="M701.668 82.34L693.808 126.74H680.488L688.348 82.34H701.668Z" stroke="black" stroke-opacity="0.5" stroke-width="2" mask="url(#path-1-outside-1_734_3)"/>
<path d="M718.304 97.52C719.424 95.96 720.844 94.74 722.564 93.86C724.324 92.94 726.304 92.48 728.504 92.48C731.904 92.48 734.644 93.62 736.724 95.9C738.804 98.18 739.844 101.34 739.844 105.38C739.844 106.9 739.704 108.38 739.424 109.82C738.784 113.38 737.624 116.48 735.944 119.12C734.264 121.72 732.244 123.72 729.884 125.12C727.524 126.48 725.024 127.16 722.384 127.16C720.184 127.16 718.364 126.72 716.924 125.84C715.524 124.92 714.544 123.68 713.984 122.12L710.324 142.94H697.004L705.824 92.9H719.144L718.304 97.52ZM725.924 109.82C726.004 109.46 726.044 108.98 726.044 108.38C726.044 107.02 725.684 105.98 724.964 105.26C724.244 104.5 723.264 104.12 722.024 104.12C720.584 104.12 719.304 104.62 718.184 105.62C717.104 106.62 716.404 108.02 716.084 109.82C716.004 110.18 715.964 110.66 715.964 111.26C715.964 112.62 716.324 113.68 717.044 114.44C717.764 115.16 718.744 115.52 719.984 115.52C721.424 115.52 722.684 115.02 723.764 114.02C724.884 113.02 725.604 111.62 725.924 109.82Z" stroke="black" stroke-opacity="0.5" stroke-width="2" mask="url(#path-1-outside-1_734_3)"/>
<path d="M766.525 81.44L759.985 109.88H748.585L752.005 81.44H766.525ZM751.225 127.22C749.145 127.22 747.505 126.72 746.305 125.72C745.146 124.72 744.565 123.42 744.565 121.82C744.565 120.42 744.945 119.12 745.705 117.92C746.505 116.72 747.586 115.78 748.945 115.1C750.346 114.38 751.885 114.02 753.565 114.02C755.605 114.02 757.206 114.54 758.365 115.58C759.525 116.58 760.105 117.88 760.105 119.48C760.105 120.88 759.725 122.18 758.965 123.38C758.205 124.54 757.145 125.48 755.785 126.2C754.425 126.88 752.905 127.22 751.225 127.22Z" stroke="black" stroke-opacity="0.5" stroke-width="2" mask="url(#path-1-outside-1_734_3)"/>
</svg>
